<?xml version="1.0" encoding="UTF-8"?><svg id="_Слой_1" xmlns="http://www.w3.org/2000/svg" viewBox="0 0 311.64 87.43"><defs><style>.cls-1{fill:#1d1d1b;}</style></defs><g><path class="cls-1" d="M37.41,36.1h1.72v17.39h-1.72v-17.39Zm1.22,15.78h9.95v1.6h-9.95v-1.6Z"/><path class="cls-1" d="M53.41,52.92c-.91-.5-1.61-1.23-2.09-2.19-.48-.96-.72-2.11-.72-3.47v-4.93c0-1.35,.24-2.51,.72-3.47,.48-.96,1.17-1.69,2.09-2.19,.91-.5,2.01-.75,3.31-.75s2.39,.25,3.31,.75c.91,.5,1.61,1.23,2.09,2.19,.48,.96,.72,2.11,.72,3.47v4.93c0,1.35-.24,2.51-.72,3.47-.48,.96-1.17,1.69-2.09,2.19-.91,.5-2.01,.75-3.31,.75s-2.39-.25-3.31-.75Zm5.68-1.41c.66-.37,1.16-.91,1.5-1.61s.51-1.56,.51-2.55v-5.09c0-1-.17-1.85-.51-2.55s-.84-1.24-1.5-1.61c-.66-.37-1.45-.56-2.37-.56s-1.72,.19-2.37,.56c-.66,.37-1.16,.91-1.5,1.61s-.51,1.56-.51,2.55v5.09c0,1,.17,1.85,.51,2.55s.84,1.24,1.5,1.61c.66,.37,1.45,.56,2.37,.56s1.72-.19,2.37-.56Z"/><path class="cls-1" d="M68.74,52.92c-.91-.5-1.61-1.23-2.09-2.19-.48-.96-.72-2.11-.72-3.47v-4.93c0-1.35,.24-2.51,.72-3.47,.48-.96,1.17-1.69,2.09-2.19,.91-.5,2.01-.75,3.31-.75s2.39,.25,3.31,.75c.91,.5,1.61,1.23,2.09,2.19,.48,.96,.72,2.11,.72,3.47v4.93c0,1.35-.24,2.51-.72,3.47-.48,.96-1.17,1.69-2.09,2.19-.91,.5-2.01,.75-3.31,.75s-2.39-.25-3.31-.75Zm5.68-1.41c.66-.37,1.16-.91,1.5-1.61s.51-1.56,.51-2.55v-5.09c0-1-.17-1.85-.51-2.55s-.84-1.24-1.5-1.61c-.66-.37-1.45-.56-2.37-.56s-1.72,.19-2.37,.56c-.66,.37-1.16,.91-1.5,1.61s-.51,1.56-.51,2.55v5.09c0,1,.17,1.85,.51,2.55s.84,1.24,1.5,1.61c.66,.37,1.45,.56,2.37,.56s1.72-.19,2.37-.56Z"/><path class="cls-1" d="M81.87,36.1h1.72v17.39h-1.72v-17.39Zm.84,12.09l9.53-12.09h2.22l-11.04,13.42-.72-1.33Zm4.9-3.98l.99-1.78,6.59,11.06h-2.06l-5.52-9.28Z"/></g><g><polygon class="cls-1" points="63.37 21.69 59.89 30.39 65.28 30.39 66.13 28.27 66.97 30.39 83.7 30.39 74.41 5.78 82.7 0 46.41 0 57.06 6.7 63.37 21.69"/><polygon class="cls-1" points="19.85 30.39 37.22 30.39 27.87 5.78 36.29 0 0 0 10.52 6.7 19.85 30.39"/><polygon class="cls-1" points="105.33 30.39 110.62 30.39 118.46 9.07 130.68 0 103.6 0 113.46 8.28 105.33 30.39"/><polygon class="cls-1" points="78.56 59.51 89.66 87.43 99.92 59.51 78.56 59.51"/><polygon class="cls-1" points="31.33 59.51 42.33 87.43 53.56 59.51 31.33 59.51"/></g><g><path class="cls-1" d="M148.03,31.64h1.2l3.8,14.95,3.67-14.95h1.94l-4.72,17.39h-1.77l-3.44-13.7-3.59,13.7h-1.77l-4.72-17.39h1.94l3.67,14.95,3.8-14.95Z"/><path class="cls-1" d="M161.27,31.64h1.72v17.39h-1.72V31.64Zm1.18,0h9.98v1.6h-9.98v-1.6Zm0,7.95h8.67v1.6h-8.67v-1.6Zm0,7.83h9.98v1.6h-9.98v-1.6Z"/><path class="cls-1" d="M175.9,31.64h1.72v17.39h-1.72V31.64Zm1.65,15.78h3.93c1.61,0,2.82-.38,3.62-1.13,.8-.75,1.2-1.89,1.2-3.4v-5.12c0-1.51-.4-2.65-1.2-3.4-.8-.75-2.01-1.13-3.62-1.13h-3.93v-1.6h3.86c1.47,0,2.7,.23,3.68,.69s1.71,1.15,2.2,2.07c.49,.92,.73,2.08,.73,3.47v4.93c0,1.39-.25,2.54-.74,3.46-.49,.92-1.23,1.61-2.21,2.07s-2.21,.69-3.68,.69h-3.85v-1.6Z"/><path class="cls-1" d="M191.74,31.64h1.72v17.39h-1.72V31.64Zm1.65,15.78h3.93c1.61,0,2.82-.38,3.62-1.13,.8-.75,1.2-1.89,1.2-3.4v-5.12c0-1.51-.4-2.65-1.2-3.4-.8-.75-2.01-1.13-3.62-1.13h-3.93v-1.6h3.86c1.47,0,2.7,.23,3.68,.69s1.71,1.15,2.2,2.07c.49,.92,.73,2.08,.73,3.47v4.93c0,1.39-.25,2.54-.74,3.46-.49,.92-1.23,1.61-2.21,2.07s-2.21,.69-3.68,.69h-3.85v-1.6Z"/><path class="cls-1" d="M209.65,49.03h-1.72V31.64h1.72v17.39Z"/><path class="cls-1" d="M214.31,31.64h1.73l10.09,15.66-.71-.48v-15.19h1.72v17.37h-1.76l-10.29-15.78,.93,.68v15.1h-1.72V31.64Z"/><path class="cls-1" d="M243.34,40.14v2.56c0,1.45-.23,2.66-.68,3.62s-1.13,1.69-2.03,2.16c-.9,.48-2.03,.72-3.38,.72s-2.51-.23-3.43-.68c-.91-.45-1.6-1.13-2.05-2.04-.46-.9-.68-2.04-.68-3.4v-5.13c0-1.45,.22-2.66,.67-3.62,.45-.96,1.13-1.68,2.03-2.16,.9-.48,2.03-.72,3.38-.72,1.12,0,2.09,.19,2.91,.57,.81,.38,1.48,.95,2,1.72s.89,1.72,1.11,2.88h-1.87c-.21-.8-.5-1.46-.87-1.98-.37-.53-.83-.92-1.38-1.18-.55-.26-1.18-.39-1.91-.39-.97,0-1.78,.18-2.43,.54-.65,.36-1.13,.9-1.45,1.63-.32,.72-.48,1.63-.48,2.72v5.13c0,1.01,.16,1.85,.49,2.52,.33,.67,.82,1.17,1.48,1.5,.66,.33,1.48,.5,2.47,.5s1.76-.17,2.39-.51,1.1-.87,1.41-1.59c.31-.72,.47-1.64,.47-2.76v-.99h-4.21v-1.6h6.03Z"/><path class="cls-1" d="M253.87,31.64h1.72v17.39h-1.72V31.64Zm1.22,15.78h9.95v1.6h-9.95v-1.6Z"/><path class="cls-1" d="M269.87,48.45c-.91-.5-1.61-1.23-2.09-2.19-.48-.96-.72-2.11-.72-3.47v-4.93c0-1.35,.24-2.51,.72-3.47,.48-.96,1.17-1.69,2.09-2.19,.91-.5,2.01-.75,3.31-.75s2.39,.25,3.31,.75c.91,.5,1.61,1.23,2.09,2.19,.48,.96,.72,2.11,.72,3.47v4.93c0,1.35-.24,2.51-.72,3.47-.48,.96-1.17,1.69-2.09,2.19-.91,.5-2.01,.75-3.31,.75s-2.39-.25-3.31-.75Zm5.68-1.41c.66-.37,1.16-.91,1.5-1.61s.51-1.56,.51-2.55v-5.09c0-1-.17-1.85-.51-2.55s-.84-1.24-1.5-1.61c-.66-.37-1.45-.56-2.37-.56s-1.72,.19-2.37,.56c-.66,.37-1.16,.91-1.5,1.61s-.51,1.56-.51,2.55v5.09c0,1,.17,1.85,.51,2.55s.84,1.24,1.5,1.61c.66,.37,1.45,.56,2.37,.56s1.72-.19,2.37-.56Z"/><path class="cls-1" d="M285.2,48.45c-.91-.5-1.61-1.23-2.09-2.19-.48-.96-.72-2.11-.72-3.47v-4.93c0-1.35,.24-2.51,.72-3.47,.48-.96,1.17-1.69,2.09-2.19,.91-.5,2.01-.75,3.31-.75s2.39,.25,3.31,.75c.91,.5,1.61,1.23,2.09,2.19,.48,.96,.72,2.11,.72,3.47v4.93c0,1.35-.24,2.51-.72,3.47-.48,.96-1.17,1.69-2.09,2.19-.91,.5-2.01,.75-3.31,.75s-2.39-.25-3.31-.75Zm5.68-1.41c.66-.37,1.16-.91,1.5-1.61s.51-1.56,.51-2.55v-5.09c0-1-.17-1.85-.51-2.55s-.84-1.24-1.5-1.61c-.66-.37-1.45-.56-2.37-.56s-1.72,.19-2.37,.56c-.66,.37-1.16,.91-1.5,1.61s-.51,1.56-.51,2.55v5.09c0,1,.17,1.85,.51,2.55s.84,1.24,1.5,1.61c.66,.37,1.45,.56,2.37,.56s1.72-.19,2.37-.56Z"/><path class="cls-1" d="M298.32,31.64h1.72v17.39h-1.72V31.64Zm.84,12.09l9.53-12.09h2.22l-11.04,13.42-.72-1.33Zm4.9-3.98l.99-1.78,6.59,11.06h-2.06l-5.52-9.28Z"/></g><g><path class="cls-1" d="M141.68,65.7c-.56-.33-.99-.79-1.3-1.39-.31-.6-.46-1.3-.46-2.09v-2.92c0-.79,.15-1.49,.46-2.09,.31-.6,.74-1.07,1.3-1.4,.56-.33,1.21-.49,1.94-.49,.61,0,1.17,.12,1.68,.37s.94,.6,1.29,1.06c.34,.46,.58,.98,.7,1.59h-1.05c-.12-.4-.31-.75-.58-1.06-.27-.31-.58-.55-.93-.72s-.72-.26-1.11-.26c-.53,0-.99,.12-1.39,.37s-.71,.6-.93,1.05c-.22,.45-.33,.98-.33,1.57v2.92c0,.6,.11,1.12,.33,1.57,.22,.45,.53,.8,.93,1.05,.4,.25,.86,.37,1.39,.37,.38,0,.75-.08,1.11-.24s.67-.4,.93-.7c.27-.31,.46-.67,.58-1.09h1.05c-.12,.6-.36,1.13-.7,1.59-.35,.46-.78,.81-1.29,1.06-.51,.25-1.07,.37-1.68,.37-.74,0-1.39-.16-1.94-.49Z"/><path class="cls-1" d="M149.28,58.48h1.05v7.6h-1.05v-7.6Zm.88,6.66h2.81c.46,0,.8-.1,1.03-.31,.23-.21,.34-.52,.34-.93v-.02c0-.44-.11-.78-.34-1-.23-.22-.57-.33-1.03-.33h-2.81v-.91h2.81c.41,0,.72-.09,.92-.26s.31-.44,.31-.8c0-.38-.1-.67-.3-.86-.2-.19-.51-.29-.91-.29h-2.83v-.94h2.88c.75,0,1.31,.17,1.68,.52,.37,.34,.56,.86,.56,1.56,0,.43-.09,.78-.26,1.04-.18,.26-.44,.42-.8,.5,.4,.1,.7,.31,.9,.61s.3,.71,.3,1.23v.02c0,.71-.2,1.25-.6,1.6-.4,.35-1,.53-1.8,.53h-2.86v-.94Z"/><path class="cls-1" d="M157.75,65.58c-.49-.41-.73-.99-.73-1.74s.22-1.27,.67-1.67c.45-.39,1.08-.59,1.89-.59h2.53l.1,.98h-2.62c-.49,0-.87,.11-1.13,.33-.27,.22-.4,.54-.4,.94,0,.43,.17,.76,.5,1,.33,.24,.81,.35,1.42,.35,.65,0,1.16-.07,1.52-.2,.36-.13,.54-.32,.54-.56l.15,1c-.15,.16-.35,.29-.58,.41-.24,.12-.51,.2-.81,.26-.31,.06-.63,.09-.99,.09-.89,0-1.58-.21-2.07-.62Zm4.29-4.31c0-.62-.17-1.09-.49-1.43-.33-.34-.8-.51-1.4-.51-.36,0-.72,.06-1.06,.18s-.65,.28-.92,.5l-.77-.53c.29-.35,.67-.62,1.14-.81,.47-.19,.99-.29,1.57-.29,.63,0,1.17,.11,1.62,.33s.79,.54,1.03,.97,.35,.93,.35,1.53v4.89h-1.05v-4.82Z"/><path class="cls-1" d="M165.07,65.1h6.88v.98h-6.88v-.98Zm0,0h1.05v2.89h-1.05v-2.89Zm.06,0h.18c.34,0,.59-.13,.76-.4,.17-.26,.28-.64,.33-1.12,.05-.49,.08-1.15,.08-1.99v-3.11h1.05v4.34c0,.9-.12,1.59-.37,2.08-.25,.49-.59,.74-1.04,.74h-.18l-.81-.54Zm2.27-6.62h4.18v.98h-4.18v-.98Zm3.25,0h1.05v7.6h-1.05v-7.6Zm1.13,6.62h1.05v2.89h-1.05v-2.89Z"/><path class="cls-1" d="M175.91,65.79c-.5-.27-.88-.65-1.14-1.17-.26-.51-.39-1.12-.39-1.84v-.86c0-.75,.13-1.39,.38-1.93,.25-.53,.62-.94,1.09-1.22s1.05-.42,1.73-.42c.63,0,1.18,.14,1.63,.41,.45,.27,.79,.67,1.03,1.2,.24,.52,.36,1.16,.36,1.89v.87h-5.49v-.95h4.51v-.07c0-.75-.18-1.33-.53-1.75-.35-.41-.85-.62-1.5-.62-.71,0-1.25,.22-1.64,.65s-.58,1.05-.58,1.85v.97c0,.76,.21,1.35,.62,1.77,.41,.42,.99,.63,1.74,.63,.35,0,.7-.07,1.04-.22,.34-.15,.65-.35,.92-.62l.72,.69c-.37,.36-.79,.64-1.26,.84-.47,.2-.94,.3-1.42,.3-.7,0-1.3-.13-1.8-.4Z"/><path class="cls-1" d="M182.64,59.25c0-.68,.1-1.24,.31-1.66s.54-.74,.99-.94c.45-.2,1.03-.31,1.75-.31,.43,0,.78-.04,1.05-.1,.27-.06,.47-.16,.6-.29,.13-.13,.19-.3,.19-.51h1.02c0,.42-.1,.77-.29,1.04-.2,.27-.5,.46-.91,.59-.41,.12-.94,.19-1.6,.19-.5,0-.9,.07-1.21,.22-.31,.15-.54,.38-.68,.7-.15,.31-.22,.73-.22,1.23v2.63h-.98v-2.78Zm1.44,6.56c-.47-.26-.83-.64-1.07-1.13-.25-.5-.37-1.09-.37-1.79v-.94l.69-1.55c.13-.57,.41-1,.85-1.29,.44-.29,1.02-.44,1.75-.44,.63,0,1.17,.13,1.62,.38,.45,.26,.79,.63,1.02,1.12,.23,.49,.35,1.08,.35,1.77v.97c0,.69-.12,1.29-.37,1.78-.25,.49-.6,.87-1.07,1.12s-1.03,.39-1.69,.39-1.22-.13-1.69-.39Zm3.23-1.2c.36-.4,.55-.97,.55-1.7v-.97c0-.73-.18-1.29-.55-1.69-.36-.4-.88-.6-1.54-.6s-1.17,.2-1.53,.6-.54,.96-.54,1.69v.97c0,.73,.18,1.3,.54,1.7,.36,.4,.87,.6,1.53,.6s1.18-.2,1.54-.6Z"/><path class="cls-1" d="M191.03,58.48h1.05v7.6h-1.05v-7.6Zm.64,3.38h5.25v.98h-5.25v-.98Zm4.61-3.38h1.05v7.6h-1.05v-7.6Z"/><path class="cls-1" d="M199.86,58.48h1.05v7.6h-1.05v-7.6Zm.58,6.62h2.09c.43,0,.78-.14,1.05-.41,.26-.27,.39-.63,.39-1.07,0-.29-.06-.55-.18-.78-.12-.22-.29-.4-.51-.52-.22-.12-.47-.19-.75-.19h-2.09v-.98h2.04c.52,0,.98,.1,1.38,.31s.71,.49,.93,.86c.22,.37,.33,.8,.33,1.3s-.11,.92-.33,1.29c-.22,.37-.53,.66-.93,.86-.4,.21-.86,.31-1.39,.31h-2.04v-.98Zm6.16-6.62h1.05v7.6h-1.05v-7.6Z"/><path class="cls-1" d="M215.39,66.07v-6.09l.18,.19-4.53,5.9h-.86v-7.6h1.04v6.22l-.18-.19,4.55-6.03h.84v7.6h-1.04Zm-3.79-9.68c-.36-.43-.54-1.09-.54-1.97h.95c0,.59,.1,1.02,.31,1.31s.52,.44,.93,.44h.13c.42,0,.72-.15,.93-.44s.31-.73,.31-1.31h.94c0,.88-.18,1.54-.54,1.97s-.91,.65-1.64,.65h-.13c-.73,0-1.28-.22-1.64-.65Z"/><path class="cls-1" d="M224.04,65.83c-.49-.24-.85-.61-1.1-1.1-.24-.49-.36-1.1-.36-1.84v-1.25c0-.73,.12-1.33,.37-1.82s.61-.85,1.09-1.09c.49-.24,1.09-.36,1.83-.36,.42,0,.79,.05,1.14,.14,.34,.09,.65,.23,.92,.4s.5,.4,.7,.68l-.78,.7c-.26-.31-.55-.55-.88-.7-.33-.15-.68-.23-1.07-.23-.76,0-1.32,.19-1.7,.57-.37,.38-.56,.95-.56,1.72v1.25c0,.78,.19,1.36,.56,1.74s.94,.58,1.69,.58c.42,0,.79-.07,1.13-.22,.34-.15,.65-.37,.92-.67l.68,.67c-.2,.27-.43,.49-.7,.67s-.57,.31-.92,.4-.72,.13-1.14,.13c-.73,0-1.34-.12-1.83-.37Z"/><path class="cls-1" d="M230.64,65.58c-.49-.41-.73-.99-.73-1.74s.22-1.27,.67-1.67c.45-.39,1.08-.59,1.89-.59h2.53l.1,.98h-2.62c-.49,0-.87,.11-1.13,.33-.27,.22-.4,.54-.4,.94,0,.43,.17,.76,.5,1,.33,.24,.81,.35,1.42,.35,.65,0,1.16-.07,1.52-.2s.54-.32,.54-.56l.15,1c-.15,.16-.35,.29-.58,.41-.24,.12-.51,.2-.81,.26-.31,.06-.63,.09-.99,.09-.89,0-1.58-.21-2.07-.62Zm4.29-4.31c0-.62-.17-1.09-.49-1.43-.33-.34-.8-.51-1.4-.51-.36,0-.72,.06-1.06,.18s-.65,.28-.92,.5l-.77-.53c.29-.35,.67-.62,1.14-.81,.47-.19,.99-.29,1.57-.29,.63,0,1.17,.11,1.62,.33s.79,.54,1.03,.97,.35,.93,.35,1.53v4.89h-1.05v-4.82Z"/><path class="cls-1" d="M237.74,65.17c.39,0,.69-.18,.91-.53,.22-.36,.33-.86,.33-1.51v-4.64h1.05v4.85c0,.6-.08,1.1-.25,1.53-.17,.42-.41,.74-.73,.96-.32,.22-.71,.33-1.16,.33h-.15v-.98Zm1.88-6.69h4.17v.98h-4.17v-.98Zm3.67,0h1.05v7.6h-1.05v-7.6Z"/><path class="cls-1" d="M247.91,65.8c-.47-.26-.83-.64-1.07-1.13-.25-.5-.37-1.09-.37-1.79v-1.24c0-.69,.12-1.28,.37-1.77,.25-.49,.6-.86,1.07-1.12,.47-.26,1.03-.38,1.69-.38s1.22,.13,1.69,.38c.47,.26,.83,.63,1.07,1.12,.25,.49,.37,1.08,.37,1.77v1.26c0,.69-.12,1.29-.37,1.78-.25,.49-.6,.87-1.07,1.12s-1.03,.39-1.69,.39-1.22-.13-1.69-.39Zm3.23-1.2c.36-.4,.55-.97,.55-1.7v-1.26c0-.73-.18-1.29-.55-1.69-.36-.4-.88-.6-1.54-.6s-1.17,.2-1.53,.6-.54,.96-.54,1.69v1.26c0,.73,.18,1.3,.54,1.7,.36,.4,.87,.6,1.53,.6s1.18-.2,1.54-.6Z"/><path class="cls-1" d="M254.86,58.48h1.05v7.6h-1.05v-7.6Zm.64,3.38h5.25v.98h-5.25v-.98Zm4.61-3.38h1.05v7.6h-1.05v-7.6Z"/></g></svg>