<?xml version="1.0" encoding="utf-8"?>
<!-- Generator: Adobe Illustrator 26.5.0, SVG Export Plug-In . SVG Version: 6.00 Build 0)  -->
<svg version="1.1"
	 id="svg96" xmlns:inkscape="http://www.inkscape.org/namespaces/inkscape" xmlns:sodipodi="http://sodipodi.sourceforge.net/DTD/sodipodi-0.dtd" xmlns:svg="http://www.w3.org/2000/svg" sodipodi:docname="65ff10b0694b8b54bef4b001b8f852ee.cdr"
	 xmlns="http://www.w3.org/2000/svg" xmlns:xlink="http://www.w3.org/1999/xlink" x="0px" y="0px" viewBox="0 0 989.9 650.7"
	 style="enable-background:new 0 0 989.9 793.7;" xml:space="preserve">
<style type="text/css">
	.st0{fill-rule:evenodd;clip-rule:evenodd;}
	.st1{fill-rule:evenodd;clip-rule:evenodd;fill:#E7E7E6;}
</style>
<sodipodi:namedview  bordercolor="#666666" borderopacity="1.0" id="namedview98" inkscape:pagecheckerboard="0" inkscape:pageopacity="0.0" inkscape:pageshadow="2" pagecolor="#ffffff">
	</sodipodi:namedview>
<path id="path2" class="st0" d="M818.5,8.2c-32.3,0-56.2,19.6-71.6,58.7L604.9,425.7c-0.5,1.8-3,2.7-7.5,2.7c-3.6,0-6.1-0.9-7.5-2.7
	L501.2,234l-75.7,191.7c-0.5,1.8-3,2.7-7.5,2.7c-3.6,0-6.1-0.9-7.5-2.7L240.6,56.6c-8.6-18.6-16.9-31.4-24.9-38.2
	c-8-6.8-18.8-10.2-32.4-10.2c-1.4,0-2-1.4-2-4.1c0-2.7,0.7-4.1,2-4.1l23.2,0.7C219.2,1.6,229.9,2,238.5,2c18.6,0,38-0.5,58-1.4
	c6.8-0.5,15.7-0.7,26.6-0.7c1.4,0,2,1.4,2,4.1c0,2.7-0.7,4.1-2,4.1c-13.2,0-22.9,1.5-29,4.4c-6.1,3-9.2,8.1-9.2,15.4
	c0,6.8,2.7,16.4,8.2,28.7l141.2,302.9l58-145.3l-73-157.6c-7.7-17.3-15.7-29.7-23.9-37.2c-8.2-7.5-18.2-11.3-30-11.3
	c-1.4,0-2-1.4-2-4.1c0-2.7,0.7-4.1,2-4.1l23.2,0.7C399.5,1.6,409.3,2,418,2c15.5,0,30.5-0.5,45-1.4c4.5-0.5,10.7-0.7,18.4-0.7
	c1.4,0,2,1.4,2,4.1c0,2.7-0.7,4.1-2,4.1c-8.2,0-14,0.8-17.4,2.4c-3.4,1.6-5.1,4.4-5.1,8.5c0,5,4.3,17.5,13,37.5l46.4,99.6l36.8-92.8
	c5.9-13.6,8.9-25,8.9-34.1c0-14.1-9.1-21.1-27.3-21.1c-0.9,0-1.4-1.4-1.4-4.1c0-2.7,0.5-4.1,1.4-4.1l15,0.7c8.2,0.9,18.2,1.4,30,1.4
	c8.6,0,18.9-0.5,30.7-1.4L639.7,0c0.9,0,1.4,1.4,1.4,4.1c0,2.7-0.5,4.1-1.4,4.1c-15,0-28.2,4.4-39.6,13.3
	c-11.4,8.9-21.2,24-29.3,45.4l-43.7,108.5l86.6,184.2L730.4,65.5c3.6-10,5.5-18.6,5.5-25.9c0-20.9-16.4-31.4-49.1-31.4
	c-1.4,0-2-1.4-2-4.1c0-2.7,0.7-4.1,2-4.1l29.3,0.7C731.6,1.6,745.5,2,757.7,2c9.6,0,20.2-0.5,32.1-1.4L818.5,0c1.4,0,2,1.4,2,4.1
	C820.5,6.8,819.8,8.2,818.5,8.2z"/>
<path id="path4" class="st1" d="M198.6,148.8h603v121.8h-603V148.8z"/>
<path id="path14" class="st0" d="M521.9,178.3c4.3,0,8.4,0.6,12.3,1.8c3.9,1.2,7.5,3.1,10.5,5.6c3.1,2.5,5.5,5.8,7.3,9.7
	c1.8,4,2.7,8.7,2.7,14.3c0,5.1-0.7,9.4-2.2,13c-1.5,3.6-3.5,6.6-5.9,9s-5.1,4.3-8,5.7c-2.9,1.4-5.8,2.4-8.7,2.9
	c-2.9,0.5-5.6,0.8-8,0.8c-2.4,0-5-0.3-7.9-0.8c-2.9-0.5-5.8-1.5-8.8-2.9c-2.9-1.4-5.6-3.3-8-5.7c-2.4-2.4-4.4-5.4-5.9-9
	c-1.5-3.6-2.2-7.9-2.2-13c0-5.5,0.9-10.3,2.7-14.3c1.8-4,4.2-7.2,7.3-9.7c3.1-2.5,6.6-4.4,10.5-5.6
	C513.6,178.9,517.7,178.3,521.9,178.3L521.9,178.3z M521.9,239.5c2.7,0,5.5-0.4,8.5-1.2c3-0.8,5.8-2.2,8.4-4.3
	c2.6-2.1,4.7-5.1,6.4-9.1c1.7-3.9,2.5-9,2.5-15.3c0-5-0.6-9.2-1.8-12.6c-1.2-3.5-2.7-6.3-4.6-8.5c-1.9-2.2-4-4-6.3-5.2
	c-2.3-1.3-4.6-2.1-6.9-2.6c-2.3-0.5-4.4-0.7-6.2-0.7c-1.8,0-3.9,0.2-6.2,0.7c-2.3,0.5-4.6,1.4-6.9,2.6c-2.3,1.3-4.4,3-6.3,5.2
	c-1.9,2.2-3.5,5.1-4.7,8.5c-1.2,3.5-1.8,7.7-1.8,12.6c0,6.2,0.8,11.3,2.5,15.3c1.7,3.9,3.8,7,6.4,9.1c2.6,2.1,5.4,3.5,8.4,4.3
	C516.4,239.1,519.3,239.5,521.9,239.5L521.9,239.5z"/>
<path id="path16" class="st0" d="M563.7,239.4v-60h6.9v60H563.7z M578,204.7l29.6,34.7h-9l-26.4-31l28.2-29h2.2L578,204.7z"/>
<path id="path18" class="st0" d="M425.3,237.8h23.8v1.6h-30.7v-60h6.9V237.8z"/>
<path id="path20" class="st0" d="M489.4,178.3c4.3,0,8.4,0.6,12.3,1.8c3.9,1.2,7.5,3.1,10.5,5.6c3.1,2.5,5.5,5.8,7.3,9.7
	c1.8,4,2.7,8.7,2.7,14.3c0,5.1-0.7,9.4-2.2,13c-1.5,3.6-3.5,6.6-5.9,9c-2.4,2.4-5.1,4.3-8,5.7c-2.9,1.4-5.8,2.4-8.7,2.9
	c-2.9,0.5-5.6,0.8-8,0.8c-2.4,0-5-0.3-7.9-0.8c-2.9-0.5-5.8-1.5-8.8-2.9c-2.9-1.4-5.6-3.3-8-5.7c-2.4-2.4-4.4-5.4-5.9-9
	c-1.5-3.6-2.2-7.9-2.2-13c0-5.5,0.9-10.3,2.7-14.3c1.8-4,4.2-7.2,7.3-9.7c3.1-2.5,6.6-4.4,10.5-5.6
	C481,178.9,485.1,178.3,489.4,178.3L489.4,178.3z M489.4,239.5c2.7,0,5.5-0.4,8.5-1.2c3-0.8,5.8-2.2,8.4-4.3
	c2.6-2.1,4.7-5.1,6.4-9.1c1.7-3.9,2.5-9,2.5-15.3c0-5-0.6-9.2-1.8-12.6c-1.2-3.5-2.7-6.3-4.6-8.5c-1.9-2.2-4-4-6.3-5.2
	c-2.3-1.3-4.6-2.1-6.9-2.6c-2.3-0.5-4.4-0.7-6.2-0.7c-1.8,0-3.9,0.2-6.2,0.7c-2.3,0.5-4.6,1.4-6.9,2.6c-2.3,1.3-4.4,3-6.3,5.2
	c-1.9,2.2-3.5,5.1-4.7,8.5c-1.2,3.5-1.8,7.7-1.8,12.6c0,6.2,0.8,11.3,2.5,15.3c1.7,3.9,3.8,7,6.4,9.1c2.6,2.1,5.4,3.5,8.4,4.3
	C483.9,239.1,486.7,239.5,489.4,239.5z"/>
<path id="path22" class="st0" d="M468.7,617.2c-3.1,0.1-5.7-0.4-7.6-1.7c-2-1.3-3.3-3.1-4.1-5.4c-0.7-2.3-0.8-4.9-0.4-7.7
	c0.6-3.2,2.3-6.7,5-10.5c2.7-3.8,6.2-7.9,10.4-12.1c4.2-4.2,9-8.5,14.2-12.7c5.2-4.3,10.7-8.4,16.5-12.3c5.7-3.9,11.5-7.6,17.1-10.9
	c5.6-3.3,11.1-5.7,16.4-7.5c5.3-1.7,10-2.8,14.1-3.1c4.1-0.3,7-0.1,8.6,0.7c0.6,0.3,1.1,0.7,1.3,1.1c0.2,0.4,0.4,0.7,0.5,1.1
	c0.3,2-0.2,3.9-1.4,5.7c-1.2,1.8-2.7,3.4-4.6,4.9c-1.9,1.5-3.8,2.8-5.8,3.8c-2,1.1-3.7,1.9-5.1,2.5c-1.5,0.6-2.3,1-2.4,1
	c-0.6,0.1-1-0.1-1.2-0.6c-0.2-0.6,0-1,0.5-1.2c0.1,0,0.7-0.3,2-0.8c1.3-0.6,2.9-1.3,4.7-2.3c1.9-1,3.7-2.1,5.5-3.5
	c1.8-1.4,3.3-2.8,4.4-4.4c1.1-1.6,1.6-3.2,1.4-4.9c0-0.2-0.2-0.5-0.6-0.7c-1.1-0.6-2.9-0.8-5.5-0.7s-5.6,0.5-9,1.3
	c-3.5,0.8-7.1,1.9-11.1,3.4c-3.9,1.5-7.8,3.4-11.7,5.7c-5.7,3.3-11.4,7-17.1,10.9c-5.7,3.9-11.1,8-16.3,12.2
	c-5.2,4.2-9.8,8.3-14,12.5c-4.2,4.1-7.5,8-10.1,11.7c-2.6,3.7-4.2,7-4.7,9.9c-0.6,3.4-0.1,6.4,1.5,8.9c1.6,2.5,4.3,3.8,8.1,3.7
	c3.9-0.1,7.4-0.5,10.4-1.4c3.1-0.8,6-2,8.8-3.4c2.8-1.4,5.7-3,8.8-4.7c3.1-1.7,6.6-3.5,10.5-5.3c3.9-1.8,8.5-3.5,13.8-5.1
	c1-0.3,1.5-0.2,1.5,0.3c0,0.8-0.2,1.3-0.6,1.3c-5.5,1.7-10.3,3.4-14.2,5.1c-3.9,1.8-7.4,3.5-10.4,5.2c-3,1.7-5.9,3.2-8.6,4.6
	c-2.7,1.4-5.6,2.5-8.7,3.5C476.4,616.4,472.8,617,468.7,617.2L468.7,617.2z"/>
<path id="path24" class="st0" d="M562.3,567c0.8,0.3,1.1,1,0.9,1.9c-0.1,1.4-0.9,2.9-2.4,4.4c-1.6,1.6-3.5,3.1-5.9,4.7
	c-2.4,1.6-5,3-7.7,4.5c-2.8,1.4-5.5,2.7-8.1,3.9c-2.6,1.2-4.9,2.2-6.9,3c-1.9,0.8-3.3,1.3-3.9,1.6l-0.6,0.6
	c-0.3,0.3-0.8,0.6-1.2,1.1s-1,1-1.6,1.5c3.2-2,5.9-3.2,8.3-3.5c2.3-0.3,3.9-0.1,4.8,0.6c1,0.8,1.2,1.8,0.5,3.2
	c-0.5,0.8-1.2,1.6-2.1,2.4c-0.9,0.8-1.9,1.5-2.9,2.1c2.1-0.3,4.6-0.7,7.4-1.2c2.9-0.5,6.2-1.3,10-2.4c0.6-0.1,1,0.1,1.1,0.6
	c0.1,0.6-0.1,1-0.6,1.1c-5.7,1.6-10.3,2.6-13.9,3.2c-3.6,0.5-6.5,0.8-8.6,1c-1.8,0.7-3.2,1.1-4.3,1.1l-0.9,0.1
	c-0.7,0-1.2-0.1-1.5-0.4c-0.2-0.2-0.3-0.5-0.3-0.7c0-0.2,0.1-0.4,0.3-0.6c0.6-0.6,1.2-0.9,2.1-1c0.8-0.1,1.9-0.2,3.3-0.3l0.8-0.1
	c1.6-0.6,3.2-1.5,4.8-2.5c1.6-1,2.8-2.1,3.5-3.3c0.1-0.3,0.2-0.6,0.2-0.6c0-0.1-0.1-0.1-0.2-0.2c-0.5-0.4-1.6-0.5-3.4-0.2
	c-1.8,0.3-4.1,1.2-6.8,2.6c-2.7,1.5-5.7,3.9-9,7.1c-0.4,0.3-0.9,0.3-1.3,0c-0.1-0.1-0.2-0.3-0.2-0.4v-0.2c0-0.3,0.1-0.5,0.2-0.6
	c2.4-3,4.5-5.4,6.2-7.1c1.7-1.7,3-3,3.9-3.8l0.7-0.6c3.7-3.5,7.5-6.7,11.3-9.6c3.8-2.9,7.3-5.5,10.6-7.6c3.3-2.1,6.1-3.7,8.5-4.6
	C559.8,566.7,561.4,566.5,562.3,567L562.3,567z M561.5,568.7v-0.2l-0.4-0.1c-0.9,0-2.7,0.7-5.4,2.1c-2.7,1.4-6.1,3.5-10.1,6.2
	c-4,2.8-8.5,6.3-13.3,10.5c2.8-1.2,5.8-2.5,9.1-4.1s6.4-3.2,9.5-4.9c3-1.7,5.5-3.4,7.5-5C560.4,571.5,561.4,570,561.5,568.7
	L561.5,568.7z"/>
<path id="path26" class="st0" d="M548.6,602.4c-0.6,0-1,0-1.2-0.1c-0.5-0.2-0.8-0.7-0.9-1.4c-0.1-1.9,2.1-4.3,6.9-7.2
	c3.3-2.1,6.1-3.1,8.4-3.1c2.2,0,3.8,0.6,4.5,1.7c0.3,0.6,0.4,1,0.4,1.3l1-0.4c0.6-0.3,1-0.2,1.2,0.3c0.3,0.4,0.3,0.7,0,0.9
	c-0.3,0.2-0.5,0.3-0.6,0.4c-3,1.7-4.9,3-5.9,3.8c-0.9,0.8-1.5,1.3-1.6,1.6c0.1,0,0.3,0,0.4,0.1c0.1,0,0.3,0.1,0.5,0.1
	c1.8,0.1,4,0,6.7-0.4c2.7-0.4,5.4-1,8.1-1.6c2.7-0.7,5.1-1.3,7.1-1.9c2-0.6,3.3-1,3.7-1.2c0.6-0.1,1,0.1,1.1,0.6
	c0.1,0.6,0,0.9-0.5,1.1c-0.6,0.3-2,0.7-4.1,1.4s-4.5,1.3-7.3,1.9c-2.8,0.7-5.5,1.2-8.2,1.6c-2.7,0.4-5,0.5-6.9,0.4
	c-1.5-0.1-2.4-0.6-2.6-1.6c-0.1-0.5,0-1,0.4-1.6c-2,0.8-4,1.6-6,2.2C551.3,602,549.8,602.4,548.6,602.4L548.6,602.4z M548.3,600.6
	c0.8,0.1,2.4-0.3,5-1.1c2.6-0.8,6.2-2.4,10.9-4.6c0.6-0.6,0.7-1.1,0.4-1.6c-0.3-0.6-1.4-0.8-3.2-0.9c-1.8,0-4.2,0.9-7.2,2.9
	c-2.1,1.3-3.6,2.4-4.5,3.4C548.9,599.6,548.4,600.3,548.3,600.6L548.3,600.6z"/>
<path id="path28" class="st0" d="M613,595.8c0.3,0.6,0.1,1-0.4,1.2c-2.6,1-5.5,2.3-8.8,3.6c-3.3,1.4-6.8,2.8-10.5,4.2l-8.5,3.2
	l-2,1.6c-4.8,3.7-8.6,6.4-11.4,8.3c-2.8,1.9-4.9,3.1-6.3,3.8c-1.4,0.7-2.4,1-3,1c-0.3,0-0.5-0.1-0.7-0.2c-0.2-0.1-0.3-0.2-0.5-0.3
	c-0.6-0.5-0.8-1.1-0.6-2c0.2-0.8,0.4-1.4,0.5-1.7c0.8-1.7,3.2-3.5,7.2-5.4c4-1.9,9.3-4.2,15.8-6.8c1-0.8,2-1.6,3-2.4
	c1-0.8,2-1.7,3.1-2.5c-1,0.4-1.9,0.6-2.7,0.6c-0.8,0-1.4-0.2-1.7-0.5c-0.3-0.3-0.5-0.7-0.7-0.9c-0.4-1.2-0.3-2.3,0.2-3.3
	c0.7-1.2,1.9-2.1,3.5-2.8c1.7-0.7,3.3-1.2,5-1.6c1.7-0.3,3-0.6,3.8-0.6l0.6-0.1c0.5-0.1,0.9-0.1,1.3,0.1c0.4,0.2,0.7,0.5,0.9,0.8
	c0.3,0,0.6,0.1,0.8,0.4c0.4,0.4,0.4,0.8-0.1,1.2l-1.1,1c-0.1,0.1-0.3,0.2-0.4,0.3c0,0-0.1,0.1-0.2,0.2l-9.6,7.7l3.1-1.1
	c3.7-1.4,7.2-2.8,10.4-4.1c3.3-1.3,6.2-2.5,8.7-3.6C612.3,595.2,612.7,595.3,613,595.8L613,595.8z M586.4,600.2
	c0.1,0.1,0.1,0.1,0.2,0.2c0.1,0.1,0.2,0.1,0.5,0.1c0.9,0,2.1-0.4,3.6-1.1c1.5-0.7,2.9-1.6,4.3-2.5s2.4-1.6,3.1-2.1
	c0.3-0.2,0.4-0.4,0.4-0.5c-0.1,0-0.1,0-0.1-0.1c0,0,0-0.1-0.1-0.1l-0.7,0.1c-3.9,0.6-6.6,1.2-8.2,2c-1.6,0.8-2.5,1.5-2.9,2.1
	C586.3,598.8,586.2,599.4,586.4,600.2L586.4,600.2z M562.1,620.8c0.9,0.1,2.8-0.8,5.8-2.8c3-1.9,6.5-4.4,10.5-7.4
	c-4,1.7-7.5,3.3-10.5,4.8c-3,1.6-4.8,2.9-5.2,4C562.3,620.1,562.1,620.6,562.1,620.8L562.1,620.8z"/>
<path id="path30" class="st0" d="M615,602.4c-1.4-0.1-2.5-0.4-3.5-0.8c-0.9-0.4-1.6-0.9-1.9-1.6c-0.1-0.3-0.1-0.8-0.1-1.2
	c0-0.5,0.3-1.1,0.8-1.8c0.5-0.6,1.2-1.2,2-1.8c0.9-0.6,1.8-1.1,2.9-1.6l0.2-0.1c1.4-0.6,2.8-1.1,4.2-1.5c1.4-0.4,2.5-0.6,3.3-0.7
	c0.4-0.1,1.1-0.1,2.1-0.1c1,0,1.6,0.4,1.8,1.2c0.1,0.3,0.1,0.7-0.1,1.1c-0.2,0.5-0.7,1-1.7,1.6c-1.2,0.6-2.7,1-4.6,1
	c-1.9,0-3.5-0.2-4.7-0.7c-1.9,0.8-3.2,1.7-3.8,2.6c-0.5,0.5-0.6,0.9-0.4,1.1c0.1,0.3,0.5,0.5,1.1,0.8c0.6,0.2,1.3,0.4,2.1,0.5
	c1.3,0.1,4.2-0.3,8.8-1c4.5-0.7,10-2.1,16.3-4.2c0.6-0.1,1,0.1,1.1,0.6c0.3,0.6,0.1,1-0.5,1.1c-6.1,2-11.4,3.4-15.9,4.2
	C619.8,602,616.7,602.4,615,602.4L615,602.4z M618.5,594.3c1,0.1,2,0.1,3-0.1c1-0.1,1.9-0.3,2.5-0.7l0.6-0.4h-1.6
	C621.9,593.3,620.4,593.6,618.5,594.3L618.5,594.3z"/>
<path id="path32" class="st0" d="M680.6,576c0.3,0.4,0.2,0.8-0.3,1.2c-0.6,0.2-1,0.1-1.2-0.4c-0.2-0.5-0.8-0.8-1.9-0.9
	c-1.1-0.1-3-0.1-5.9,0.1c-2.9,0.1-7.2,0.4-12.9,0.8l-0.2,0.1l0.5,0.8c0.5,0.8,1,1.7,1.5,2.9c0.5,1.2,0.7,2.5,0.6,4.1
	c-0.1,1.6-0.8,3.3-2.1,5.2c-1.3,1.9-3.6,4-6.9,6.2c0,0.1,0,0.1-0.1,0.2c-2.6,2.1-5.4,3.6-8.3,4.6c-2.9,1-5,1.5-6.5,1.5
	c-0.8,0-1.3-0.2-1.6-0.5c-0.3-0.3-0.5-0.5-0.5-0.7c-0.4-1.2,0.9-3,4.1-5.3c3.3-2.5,6.1-3.8,8.3-3.8c2.2-0.1,3.6,0.3,4.3,1.1
	c0.1,0.1,0.3,0.3,0.4,0.6c2.5-1.9,4.3-3.6,5.3-5.1c1-1.6,1.6-3,1.7-4.2c0.1-1.2-0.1-2.4-0.5-3.3c-0.4-1-0.8-1.8-1.2-2.5
	c-0.3-0.6-0.6-1-0.8-1.5c-0.2-0.4-0.2-0.8,0-1.2c0.2-0.4,0.5-0.7,1-0.8c0.5-0.1,0.7-0.2,0.9-0.2c4.9-0.3,8.8-0.6,11.7-0.8
	c2.9-0.2,5-0.2,6.5-0.2c1.5,0,2.5,0.2,3.1,0.5S680.3,575.4,680.6,576z M649.8,595.2c0.3-0.3,0.4-0.5,0.4-0.6c0-0.1-0.1-0.2-0.2-0.3
	c-0.3-0.5-1.4-0.6-3.2-0.4c-1.8,0.2-4.1,1.4-6.9,3.4c-1.2,0.9-2,1.6-2.4,2.1c-0.5,0.5-0.7,0.9-0.8,1.1h0.2c1.2,0,3.1-0.4,5.5-1.3
	c2.4-0.9,4.8-2.1,7.2-3.8L649.8,595.2z"/>
<path id="path34" class="st0" d="M698.4,595.9c0.1,0.6-0.1,1-0.6,1.1c-0.2,0.1-1.2,0.4-3.1,0.9c-1.8,0.5-4.1,1.1-6.8,1.8
	c-2.7,0.7-5.4,1.2-8.2,1.8c-2.8,0.5-5.2,0.8-7.2,0.8h-1.2c-1.5-0.1-2.3-0.6-2.5-1.5c-0.2-0.9,0.3-2,1.7-3.2h-0.8
	c-1.2,0-2.5-0.1-3.7-0.2c-1.2-0.1-2.1-0.2-2.8-0.3l-6.2,5.2c-0.1,0.1-0.3,0.2-0.6,0.2c-0.3,0-0.5-0.1-0.7-0.3
	c-0.3-0.5-0.3-0.9,0.1-1.2l6.4-5.4c0.1,0,0.2-0.1,0.3-0.2l4.3-3.5c0.5-0.3,0.9-0.3,1.4,0.1c0.3,0.4,0.3,0.9-0.2,1.4l-2.7,2.2
	c1.8,0.1,3.5,0.2,5,0.2s2.5-0.1,2.9-0.3c0.5-0.3,1-0.7,1.6-1.1c0.6-0.4,1.1-0.7,1.7-1.1l0.7-0.5c0.1-0.2,0.3-0.3,0.5-0.3
	c0.6-0.1,0.9,0,1,0.5c0.2,0.6-0.2,1.1-1.4,1.8c-0.6,0.4-1.2,0.8-1.7,1.1c-0.5,0.3-0.9,0.7-1.4,0.9c0,0.1-0.1,0.2-0.2,0.2H674
	c-1.3,1-2.2,1.7-2.6,2.2c-0.4,0.5-0.7,0.9-0.7,1.1c0.1,0,0.2,0,0.3,0.1c0.1,0,0.3,0.1,0.6,0.1c1.4,0.1,3.2,0.1,5.3-0.3
	c2.1-0.3,4.4-0.7,6.7-1.2c2.3-0.5,4.5-1.1,6.5-1.6c2-0.6,3.7-1,5-1.4c1.3-0.4,2-0.6,2-0.6C697.7,595.2,698.2,595.4,698.4,595.9
	L698.4,595.9z"/>
<path id="path36" class="st0" d="M734.4,595.9c0.3,0.6,0.1,1-0.5,1.1c-0.2,0.1-1.2,0.4-3.1,0.9c-1.8,0.5-4.1,1.1-6.8,1.8
	c-2.7,0.7-5.4,1.2-8.2,1.8c-2.8,0.5-5.2,0.8-7.2,0.8h-1.2c-1.5-0.1-2.3-0.6-2.5-1.5c-0.2-0.7,0-1.5,0.7-2.3c0.7-0.8,1.7-1.7,3-2.7
	c-1,0.2-2,0.3-3,0.4c-1,0.1-1.9,0.1-2.8,0l-0.1,0.6c-0.4,1.1-1.5,2.3-3.1,3.6c-1.7,1.3-3.4,1.9-5.3,1.9l-0.6-0.1c-0.6,0-1-0.3-1.2-1
	c-0.1-0.8,0.4-1.9,1.6-3.3c1.2-1.4,3-2.8,5.2-4.2c0.3-0.2,0.6-0.4,0.9-0.6c0.2-0.2,0.5-0.4,0.8-0.5l1.1-0.8c0.6-0.3,1-0.3,1.4,0.2
	c0.3,0.6,0.2,1-0.3,1.2l-1,0.8l-0.2,0.1c0.7,0.3,1.8,0.5,3.3,0.3c1.5-0.1,3-0.4,4.6-0.8c1.6-0.4,2.8-0.8,3.5-1.2
	c0.3-0.1,0.7-0.1,0.9,0.1c0.1,0,0.1,0,0.1,0.1s0,0.1,0.1,0.1c0,0.1,0,0.1,0.1,0.1c0,0,0.1,0,0.1,0.1s0,0.1,0.1,0.2
	c0,0,0.1,0.1,0.1,0.2c0.1,0.5-0.4,1-1.5,1.6c-2.7,1.8-4.5,3.1-5.3,3.9c-0.8,0.8-1.3,1.4-1.4,1.7c0.1,0,0.2,0,0.3,0.1
	c0.1,0,0.3,0.1,0.6,0.1c1.5,0.1,3.3,0.1,5.4-0.3c2.1-0.3,4.4-0.7,6.7-1.2c2.3-0.5,4.5-1.1,6.5-1.6c2-0.6,3.7-1,5-1.4
	c1.3-0.4,2-0.6,2-0.6C733.9,595.2,734.3,595.4,734.4,595.9L734.4,595.9z M701.2,596.2c0.1-0.3,0-0.5-0.1-0.5
	c-0.2-0.2-0.3-0.4-0.3-0.5l-0.3,0.1c-1.9,1.2-3.3,2.3-4.2,3.2c-0.9,0.9-1.4,1.6-1.6,2c1.4-0.1,2.8-0.6,4.1-1.5
	C700.1,598.1,700.9,597.1,701.2,596.2z"/>
<path id="path38" class="st0" d="M748.4,589.5c-0.6,0-1.2-0.1-1.9-0.4c-0.8-0.4-1.2-1-1.3-1.7c-0.1-0.7-0.2-1.1-0.2-1.1
	c0-0.6,0.3-0.8,0.8-0.8c0.5,0.1,0.7,0.3,0.7,0.8c0,0,0,0.2,0.1,0.5c0.1,0.3,0.3,0.7,0.8,0.9c0.3,0.1,1,0.1,2-0.2
	c1-0.2,2.6-0.9,4.9-2c0.6-0.2,1-0.1,1.2,0.3c0.2,0.4,0.1,0.8-0.4,1c-1.5,0.7-2.7,1.3-3.8,1.8C750.3,589.2,749.3,589.5,748.4,589.5
	L748.4,589.5z M730.8,602.4c-0.4,0-0.7,0-0.9-0.1c-0.6-0.3-0.9-0.7-0.9-1.4c-0.1-0.8,0.5-1.9,1.7-3.2c1.2-1.3,2.9-2.6,5.1-4
	c0.3-0.2,0.7-0.4,0.9-0.6c0.3-0.2,0.5-0.4,0.7-0.5l1.2-0.8c0.5-0.3,0.9-0.3,1.2,0.2c0.4,0.6,0.3,1-0.3,1.2l-1,0.8
	c-0.3,0.2-0.6,0.4-0.8,0.6c-0.3,0.2-0.6,0.4-0.9,0.6c-2.1,1.3-3.6,2.4-4.5,3.4c-0.8,0.9-1.3,1.6-1.5,1.9c0.6,0.1,1.7-0.2,3.1-0.7
	c1.5-0.6,3.1-1.2,4.9-2.1c1.8-0.8,3.7-1.7,5.5-2.6c1.8-0.9,3.4-1.7,4.7-2.3c0.6-0.3,1-0.6,1.3-0.6c0.3-0.1,0.6,0.1,0.9,0.5
	c0.3,0.6-0.2,1.2-1.4,1.9c-2.7,1.8-4.5,3.1-5.3,3.9c-0.8,0.8-1.3,1.4-1.4,1.7c0.1,0,0.2,0,0.3,0.1c0.1,0,0.3,0.1,0.5,0.1
	c1.5,0.1,3.3,0.1,5.4-0.3c2.1-0.3,4.4-0.7,6.7-1.2c2.3-0.5,4.5-1.1,6.5-1.6c2-0.6,3.7-1,5-1.4c1.3-0.4,2-0.6,2-0.6
	c0.6-0.1,1,0.1,1.1,0.6c0.3,0.6,0.1,1-0.5,1.1c-0.1,0.1-0.9,0.3-2.3,0.7c-1.4,0.4-3.1,0.9-5.2,1.5c-2.1,0.6-4.3,1.1-6.6,1.6
	c-2.4,0.5-4.6,0.9-6.8,1.2c-2.1,0.3-4,0.4-5.5,0.3c-1.5-0.1-2.3-0.6-2.5-1.5c-0.2-0.8,0.1-1.7,1-2.7c-3.2,1.5-5.7,2.6-7.5,3.3
	C733.1,602,731.7,602.4,730.8,602.4L730.8,602.4z"/>
<path id="path40" class="st0" d="M847.4,595.8c0.3,0.6,0.1,1-0.4,1.2c-2.6,1-5.5,2.3-8.8,3.6c-3.3,1.4-6.8,2.8-10.5,4.2l-8.5,3.2
	l-2,1.6c-4.8,3.7-8.6,6.4-11.4,8.3c-2.8,1.9-4.9,3.1-6.3,3.8c-1.4,0.7-2.4,1-3,1c-0.3,0-0.5-0.1-0.7-0.2c-0.2-0.1-0.3-0.2-0.5-0.3
	c-0.6-0.5-0.8-1.1-0.6-2c0.2-0.8,0.4-1.4,0.5-1.7c0.8-1.7,3.2-3.5,7.2-5.4c4-1.9,9.3-4.2,15.8-6.8c1-0.8,2-1.6,3-2.4
	c1-0.8,2-1.7,3.1-2.5c-1,0.4-1.9,0.6-2.7,0.6c-0.8,0-1.4-0.2-1.7-0.5c-0.3-0.3-0.5-0.7-0.7-0.9c-0.4-1.2-0.3-2.3,0.2-3.3
	c0.7-1.2,1.9-2.1,3.5-2.8c1.7-0.7,3.3-1.2,5-1.6c1.7-0.3,3-0.6,3.8-0.6l0.6-0.1c0.5-0.1,0.9-0.1,1.3,0.1c0.4,0.2,0.7,0.5,0.9,0.8
	c0.3,0,0.6,0.1,0.8,0.4c0.4,0.4,0.4,0.8-0.1,1.2l-1.1,1c-0.1,0.1-0.3,0.2-0.4,0.3c0,0-0.1,0.1-0.2,0.2l-9.6,7.7l3.1-1.1
	c3.7-1.4,7.2-2.8,10.4-4.1c3.3-1.3,6.2-2.5,8.7-3.6C846.7,595.2,847.1,595.3,847.4,595.8L847.4,595.8z M820.8,600.2
	c0.1,0.1,0.1,0.1,0.2,0.2c0.1,0.1,0.2,0.1,0.5,0.1c0.9,0,2.1-0.4,3.6-1.1c1.5-0.7,2.9-1.6,4.3-2.5s2.4-1.6,3.1-2.1
	c0.3-0.2,0.4-0.4,0.4-0.5c-0.1,0-0.1,0-0.1-0.1c0,0,0-0.1-0.1-0.1l-0.7,0.1c-3.9,0.6-6.6,1.2-8.2,2c-1.6,0.8-2.5,1.5-2.9,2.1
	C820.7,598.8,820.6,599.4,820.8,600.2L820.8,600.2z M796.5,620.8c0.9,0.1,2.8-0.8,5.8-2.8c3-1.9,6.5-4.4,10.5-7.4
	c-4,1.7-7.5,3.3-10.5,4.8c-3,1.6-4.8,2.9-5.2,4C796.7,620.1,796.5,620.6,796.5,620.8L796.5,620.8z"/>
<path id="path42" class="st0" d="M872.2,595.9c0.1,0.2,0.1,0.4,0,0.7c-0.1,0.2-0.3,0.4-0.5,0.5c-1.8,0.6-3.4,1.1-4.8,1.3
	c-1.4,0.2-2.6,0.4-3.7,0.4c-1.3,0-2.4-0.2-3.2-0.5c-0.8-0.3-1.5-0.7-2-1.2c-0.1-0.1-0.2-0.2-0.2-0.2c-2.6,1.9-5.2,3.3-7.9,4.2
	c-2.7,0.9-4.8,1.4-6.3,1.4c-0.7,0-1.2-0.2-1.5-0.5c-0.3-0.3-0.5-0.5-0.5-0.7c-0.4-1.2,0.9-3,4.1-5.3c3.3-2.5,6.1-3.8,8.3-3.8
	c2.2-0.1,3.6,0.3,4.3,1.1c0.3,0.4,0.5,0.9,0.5,1.5v0.2c0,0.1,0.1,0.2,0.2,0.5c0.1,0.2,0.4,0.5,0.8,0.8c0.6,0.3,1.7,0.6,3.4,0.8
	c1.7,0.2,4.4-0.4,8-1.6C871.7,595.2,872.1,595.4,872.2,595.9L872.2,595.9z M856.4,595.5c0-0.1,0.1-0.2,0.4-0.5
	c0.2-0.2,0.3-0.5,0.1-0.7c-0.4-0.5-1.5-0.6-3.3-0.4c-1.8,0.2-4,1.4-6.8,3.4c-1.2,0.9-2.1,1.6-2.5,2.1c-0.4,0.5-0.7,0.9-0.8,1.1h0.3
	c1.2,0,3.1-0.4,5.5-1.3C851.6,598.4,854,597.2,856.4,595.5L856.4,595.5z"/>
<path id="path44" class="st0" d="M920.2,595.9c0.2,0.5,0,0.9-0.5,1.1c-2.3,0.8-4.9,1.6-7.7,2.4c-2.9,0.8-5.6,1.5-8.3,2
	c-2.6,0.5-4.7,0.8-6.3,0.8h-0.1c-0.8,0-1.4-0.2-1.8-0.5c-0.3-0.3-0.6-0.6-0.7-0.9c-0.1-0.5-0.1-1,0.1-1.6c0.2-0.6,0.4-1.2,0.8-1.9
	c-3,1.9-5.3,3.2-7,3.9c-1.7,0.7-2.9,1-3.6,1c-0.6,0-1-0.1-1.2-0.3c-0.2-0.2-0.4-0.3-0.6-0.5c-0.5-0.7-0.5-1.5-0.2-2.5s1-2,1.8-3.1
	c-1.6,0.8-3.3,1.7-5.1,2.6c-1.8,0.9-3.4,1.7-4.9,2.4c-1.5,0.7-2.6,1.1-3.3,1.4c-0.3,0.1-0.6,0.1-0.9,0.2c-0.3,0.1-0.7,0.1-1,0.1
	c-1,0-1.6-0.3-2-0.9c-0.7-1.1,0.3-3.2,3-6.1c0.3-0.4,0.8-0.4,1.2-0.1c0.5,0.3,0.5,0.8,0.1,1.4c-1.1,1.3-1.8,2.3-2.2,2.9
	c-0.3,0.6-0.5,1-0.5,1.1c0.1,0,0.3,0,0.6-0.1c0.3,0,0.7-0.1,1.2-0.2c0.6-0.1,1.7-0.6,3.2-1.3c1.5-0.7,3.2-1.6,5.1-2.6
	c1.9-1,3.7-2,5.5-2.9c1.7-0.9,3.1-1.7,4.2-2.2c0.1-0.1,0.2-0.1,0.3-0.1c0.4-0.1,0.7,0,0.9,0.3c0.3,0.4,0.2,0.9-0.1,1.4
	c-2.1,1.8-3.7,3.4-4.5,4.8c-0.9,1.4-1.2,2.3-1.1,2.6c0,0,0.2,0,0.6,0c0.4,0,1.1-0.2,2.2-0.6c1.1-0.4,2.7-1.2,4.8-2.4
	c2.1-1.2,4.9-3,8.3-5.5c0.1-0.1,0.1-0.2,0.2-0.3s0.1-0.1,0.2-0.2c0.4-0.4,0.8-0.4,1.1,0l0.2,0.2l0,0c0,0,0,0,0.1,0.1
	c0.3,0.4,0.2,0.8-0.3,1.1c-2.1,2-3.6,3.6-4.5,4.9c-0.8,1.2-1.2,2-1,2.3c0,0,0.1,0,0.2,0.1c0.1,0,0.3,0.1,0.6,0.1
	c1.5,0,3.5-0.2,6-0.7c2.6-0.5,5.3-1.1,8.2-1.9c2.9-0.8,5.4-1.6,7.6-2.4C919.6,595.2,920,595.4,920.2,595.9L920.2,595.9z"/>
<path id="path46" class="st0" d="M156.4,483.9h1.6L139.9,543h-0.6l-19.5-48.1L100.3,543h-0.6l-18.1-59h6.9l14.7,47.8l15.8-38.9
	l3.4-8.4h0.4l19.1,47L156.4,483.9z"/>
<path id="path48" class="st0" d="M213.5,485.5h-22.8v25.3h20.3v1.6h-20.3v27.9h22.8v1.6h-29.4v-58h0.3h29.1V485.5z"/>
<path id="path50" class="st0" d="M264.2,483.9c2.1,0,4.4,0.2,7,0.6c2.6,0.4,5.2,1.1,7.8,2.1c2.6,1,5,2.6,7.1,4.6
	c2.1,2,3.9,4.7,5.2,8.1c1.3,3.4,2,7.6,2,12.6c0,5.2-0.7,9.6-2.2,13.1c-1.5,3.5-3.4,6.4-5.8,8.6c-2.4,2.2-5,3.9-7.7,5
	c-2.7,1.2-5.4,2-7.9,2.4c-2.6,0.4-4.7,0.7-6.5,0.7c-1.8,0.1-3,0.1-3.5,0.1h-19.5v-58L264.2,483.9z M259.7,540.3
	c3.1,0,6.3-0.4,9.5-1.3c3.2-0.9,6.1-2.3,8.8-4.4c2.6-2.1,4.8-5,6.4-8.7c1.6-3.7,2.4-8.4,2.4-14c0-4.5-0.6-8.3-1.7-11.4
	c-1.1-3.1-2.6-5.7-4.5-7.6c-1.9-2-3.9-3.5-6.2-4.5c-2.3-1-4.6-1.8-7-2.2c-2.4-0.4-4.6-0.6-6.7-0.6h-13.8v54.7L259.7,540.3z"/>
<path id="path52" class="st0" d="M344.5,483.9c2.1,0,4.4,0.2,7,0.6c2.6,0.4,5.2,1.1,7.8,2.1c2.6,1,5,2.6,7.1,4.6
	c2.1,2,3.9,4.7,5.2,8.1c1.3,3.4,2,7.6,2,12.6c0,5.2-0.7,9.6-2.2,13.1c-1.5,3.5-3.4,6.4-5.8,8.6c-2.4,2.2-5,3.9-7.7,5
	c-2.7,1.2-5.4,2-7.9,2.4c-2.6,0.4-4.7,0.7-6.5,0.7c-1.8,0.1-3,0.1-3.5,0.1h-19.5v-58L344.5,483.9z M340,540.3c3.1,0,6.3-0.4,9.5-1.3
	c3.2-0.9,6.1-2.3,8.8-4.4c2.6-2.1,4.8-5,6.4-8.7c1.6-3.7,2.4-8.4,2.4-14c0-4.5-0.6-8.3-1.7-11.4c-1.1-3.1-2.6-5.7-4.5-7.6
	c-1.9-2-3.9-3.5-6.2-4.5c-2.3-1-4.6-1.8-7-2.2c-2.4-0.4-4.6-0.6-6.7-0.6h-13.8v54.7L340,540.3z"/>
<path id="path54" class="st0" d="M401.7,541.9v-58h6.6v58H401.7z"/>
<path id="path56" class="st0" d="M484,483.9v59.5h-0.3l-45.2-50.1v48.6h-1.6v-59.1h0.3l45.2,50.1v-49L484,483.9z"/>
<path id="path58" class="st0" d="M546.2,512.4h14.8v26.3c0,0-0.8,0.4-2.4,1.2c-1.6,0.8-3.9,1.6-6.8,2.4c-2.9,0.8-6.3,1.2-10.1,1.2
	c-2.3,0-4.9-0.3-7.6-0.8c-2.7-0.5-5.5-1.5-8.2-2.8c-2.7-1.4-5.2-3.2-7.5-5.5c-2.3-2.3-4.1-5.2-5.5-8.7c-1.4-3.5-2.1-7.7-2.1-12.6
	c0-5.3,0.9-9.9,2.6-13.8c1.7-3.8,4.1-7,7-9.4c3-2.4,6.4-4.2,10.2-5.4c3.8-1.2,7.8-1.8,11.9-1.8c3.5,0,6.5,0.2,9.1,0.6
	c2.5,0.4,4.5,0.7,5.9,1.1c1.4,0.4,2,0.6,2,0.6v1.9c0,0-0.7-0.2-2-0.6c-1.3-0.4-3.2-0.9-5.8-1.3c-2.5-0.4-5.6-0.6-9.2-0.6
	c-1.9,0-4,0.2-6.3,0.7c-2.3,0.5-4.5,1.3-6.7,2.5s-4.2,2.9-6,5.1c-1.8,2.1-3.3,4.9-4.4,8.2c-1.1,3.3-1.7,7.4-1.7,12.2
	c0,7.2,1.1,12.9,3.3,17.1c2.2,4.2,5.1,7.2,8.9,9c3.7,1.8,8,2.7,12.8,2.7c2.3,0,4.5-0.2,6.5-0.6c2-0.4,3.8-0.9,5.3-1.5v-26h-8.2
	L546.2,512.4z"/>
<path id="path60" class="st0" d="M636.5,540.3h23v1.6h-29.7v-58h6.6V540.3z"/>
<path id="path62" class="st0" d="M716.9,482.8c4.1,0,8.1,0.6,11.9,1.8c3.8,1.2,7.2,3,10.2,5.4c3,2.4,5.3,5.6,7.1,9.4
	c1.8,3.8,2.6,8.4,2.6,13.8c0,4.9-0.7,9.1-2.2,12.6c-1.4,3.5-3.3,6.4-5.7,8.7c-2.4,2.3-4.9,4.1-7.7,5.5c-2.8,1.4-5.6,2.3-8.4,2.8
	c-2.8,0.5-5.4,0.8-7.7,0.8c-2.3,0-4.8-0.3-7.6-0.8c-2.8-0.5-5.7-1.5-8.5-2.8c-2.8-1.4-5.4-3.2-7.7-5.5c-2.3-2.3-4.2-5.2-5.7-8.7
	c-1.4-3.5-2.2-7.7-2.2-12.6c0-5.3,0.9-9.9,2.6-13.8c1.7-3.8,4.1-7,7-9.4c3-2.4,6.4-4.2,10.2-5.4
	C708.8,483.4,712.7,482.8,716.9,482.8L716.9,482.8z M716.9,541.9c2.6,0,5.3-0.4,8.2-1.2c2.9-0.8,5.6-2.2,8.2-4.2
	c2.5-2,4.6-4.9,6.2-8.8c1.6-3.8,2.4-8.7,2.4-14.7c0-4.8-0.6-8.9-1.7-12.2c-1.1-3.3-2.6-6.1-4.5-8.2c-1.8-2.1-3.9-3.8-6.1-5.1
	c-2.2-1.2-4.5-2.1-6.7-2.5c-2.2-0.5-4.2-0.7-6-0.7c-1.8,0-3.8,0.2-6,0.7c-2.2,0.5-4.4,1.3-6.6,2.5c-2.2,1.2-4.3,2.9-6.1,5.1
	c-1.9,2.1-3.4,4.9-4.5,8.2c-1.1,3.3-1.7,7.4-1.7,12.2c0,6,0.8,10.9,2.4,14.7c1.6,3.8,3.7,6.7,6.2,8.8c2.5,2,5.3,3.4,8.2,4.2
	C711.6,541.6,714.3,541.9,716.9,541.9L716.9,541.9z"/>
<path id="path64" class="st0" d="M806.6,482.8c4.1,0,8.1,0.6,11.9,1.8c3.8,1.2,7.2,3,10.2,5.4c3,2.4,5.3,5.6,7.1,9.4
	c1.8,3.8,2.6,8.4,2.6,13.8c0,4.9-0.7,9.1-2.2,12.6c-1.4,3.5-3.3,6.4-5.7,8.7c-2.4,2.3-4.9,4.1-7.7,5.5s-5.6,2.3-8.4,2.8
	c-2.8,0.5-5.4,0.8-7.7,0.8c-2.3,0-4.8-0.3-7.6-0.8c-2.8-0.5-5.7-1.5-8.5-2.8c-2.8-1.4-5.4-3.2-7.7-5.5c-2.3-2.3-4.2-5.2-5.7-8.7
	c-1.4-3.5-2.2-7.7-2.2-12.6c0-5.3,0.9-9.9,2.6-13.8c1.7-3.8,4.1-7,7-9.4c3-2.4,6.4-4.2,10.2-5.4
	C798.5,483.4,802.5,482.8,806.6,482.8L806.6,482.8z M806.6,541.9c2.6,0,5.3-0.4,8.2-1.2c2.9-0.8,5.6-2.2,8.2-4.2
	c2.5-2,4.6-4.9,6.2-8.8c1.6-3.8,2.4-8.7,2.4-14.7c0-4.8-0.6-8.9-1.7-12.2c-1.1-3.3-2.6-6.1-4.5-8.2c-1.8-2.1-3.9-3.8-6.1-5.1
	c-2.2-1.2-4.5-2.1-6.7-2.5c-2.2-0.5-4.2-0.7-6-0.7c-1.8,0-3.8,0.2-6,0.7c-2.2,0.5-4.4,1.3-6.6,2.5c-2.2,1.2-4.3,2.9-6.1,5.1
	c-1.9,2.1-3.4,4.9-4.5,8.2c-1.1,3.3-1.7,7.4-1.7,12.2c0,6,0.8,10.9,2.4,14.7c1.6,3.8,3.7,6.7,6.2,8.8c2.5,2,5.3,3.4,8.2,4.2
	C801.3,541.6,804,541.9,806.6,541.9z"/>
<path id="path66" class="st0" d="M865.4,541.9v-58h6.6v58H865.4z M879.2,508.3l28.6,33.5h-8.7l-25.5-29.9l27.3-28h2.1L879.2,508.3z"
	/>
</svg>
