<?xml version="1.0" encoding="UTF-8" standalone="no"?>
<svg
   version="1.1"
   width="989.89642"
   height="793.70111"
   id="svg96"
   viewBox="0 0 989.89638 793.70111"
   sodipodi:docname="65ff10b0694b8b54bef4b001b8f852ee.cdr"
   xmlns:inkscape="http://www.inkscape.org/namespaces/inkscape"
   xmlns:sodipodi="http://sodipodi.sourceforge.net/DTD/sodipodi-0.dtd"
   xmlns="http://www.w3.org/2000/svg"
   xmlns:svg="http://www.w3.org/2000/svg">
  <defs
     id="defs100" />
  <sodipodi:namedview
     id="namedview98"
     pagecolor="#ffffff"
     bordercolor="#666666"
     borderopacity="1.0"
     inkscape:pageshadow="2"
     inkscape:pageopacity="0.0"
     inkscape:pagecheckerboard="0" />
  <path
     d="m 818.459,8.1876 c -32.2945,0 -56.1735,19.5579 -71.6382,58.6749 L 604.9084,425.7353 c -0.4547,1.8187 -2.956,2.728 -7.5039,2.728 -3.6385,0 -6.1398,-0.9093 -7.505,-2.728 L 501.2047,234.0181 425.4732,425.7353 c -0.4547,1.8187 -2.956,2.728 -7.505,2.728 -3.6385,0 -6.1398,-0.9093 -7.505,-2.728 L 240.5796,56.6283 C 231.9374,37.9797 223.6353,25.2442 215.6767,18.4207 207.7171,11.5983 196.9137,8.1876 183.2688,8.1876 c -1.3651,0 -2.0466,-1.3652 -2.0466,-4.0943 0,-2.7281 0.6815,-4.0933 2.0466,-4.0933 l 23.1965,0.6826 c 12.7355,0.9094 23.4244,1.364 32.0666,1.364 18.6486,0 37.9797,-0.4546 57.9934,-1.364 C 303.3477,0.2268 312.2168,0 323.1335,0 c 1.3641,0 2.0466,1.3652 2.0466,4.0933 0,2.7291 -0.6825,4.0943 -2.0466,4.0943 -13.1901,0 -22.8563,1.4786 -28.9961,4.4345 -6.141,2.956 -9.2115,8.0742 -9.2115,15.3513 0,6.8224 2.7292,16.3741 8.1876,28.6549 L 434.3434,359.5543 492.3356,214.2322 419.3322,56.6283 c -7.7317,-17.2834 -15.6914,-29.6787 -23.879,-37.1837 -8.1864,-7.5039 -18.1939,-11.257 -30.0189,-11.257 -1.3651,0 -2.0477,-1.3652 -2.0477,-4.0943 0,-2.7281 0.6826,-4.0933 2.0477,-4.0933 l 23.1965,0.6826 c 10.9168,0.9094 20.6952,1.364 29.3374,1.364 15.4658,0 30.4747,-0.4546 45.03,-1.364 C 467.5461,0.2268 473.6871,0 481.4189,0 c 1.3651,0 2.0466,1.3652 2.0466,4.0933 0,2.7291 -0.6815,4.0943 -2.0466,4.0943 -8.1865,0 -13.9862,0.796 -17.3968,2.3879 -3.4118,1.5919 -5.1182,4.4345 -5.1182,8.5289 0,5.0026 4.3211,17.5102 12.9633,37.5239 l 46.3941,99.6105 36.8424,-92.7881 c 5.9131,-13.6448 8.8702,-25.0163 8.8702,-34.1132 0,-14.0996 -9.097,-21.1499 -27.2908,-21.1499 -0.9105,0 -1.3652,-1.3652 -1.3652,-4.0943 0,-2.7281 0.4547,-4.0933 1.3652,-4.0933 l 15.0088,0.6826 c 8.1876,0.9094 18.1939,1.364 30.02,1.364 8.6423,0 18.8765,-0.4546 30.7026,-1.364 L 639.7053,0 c 0.9094,0 1.3641,1.3652 1.3641,4.0933 0,2.7291 -0.4547,4.0943 -1.3641,4.0943 -15.01,0 -28.2001,4.4345 -39.5716,13.3047 -11.3714,8.869 -21.151,23.9924 -29.3374,45.3702 L 527.1314,175.3421 613.7785,359.5543 730.4468,65.4984 c 3.6374,-10.0074 5.4572,-18.6485 5.4572,-25.9267 0,-20.922 -16.374,-31.3841 -49.1232,-31.3841 -1.364,0 -2.0466,-1.3652 -2.0466,-4.0943 0,-2.7281 0.6826,-4.0933 2.0466,-4.0933 l 29.3386,0.6826 c 15.4646,0.9094 29.3374,1.364 41.6182,1.364 9.5516,0 20.2405,-0.4546 32.0666,-1.364 L 818.459,0 c 1.3641,0 2.0467,1.3652 2.0467,4.0933 0,2.7291 -0.6826,4.0943 -2.0467,4.0943 z"
     style="fill:#000000;fill-rule:evenodd"
     id="path2" />
  <path
     d="M 198.6224,148.8427 H 801.6101 V 270.6281 H 198.6224 Z"
     style="fill:#ffffff;fill-rule:evenodd"
     id="path4" />
  <path
     d="M 1.4864,716.4147 H 988.41"
     style="fill:none;stroke:#000000;stroke-width:2.9728;stroke-linecap:round;stroke-linejoin:miter;stroke-dasharray:none"
     id="path6" />
  <path
     d="m 76.1143,753.1674 c 5.9445,0 6.6472,0.019 9.0003,0.1268 2.1679,0.0977 3.3489,0.4592 4.1393,0.7713 1.0351,0.3996 1.7772,0.888 2.5574,1.6694 0.7814,0.7802 1.2597,1.5223 1.6694,2.5574 0.3031,0.7814 0.6646,1.9624 0.7713,4.1393 0.1078,2.3531 0.1269,3.0559 0.1269,9.0015 0,5.9445 -0.0191,6.6473 -0.1269,9.0004 -0.0977,2.1678 -0.4581,3.3489 -0.7713,4.1392 -0.3996,1.0351 -0.888,1.7772 -1.6694,2.5575 -0.7802,0.7813 -1.5223,1.2596 -2.5574,1.6694 -0.7814,0.3031 -1.9624,0.6646 -4.1393,0.7712 -2.3531,0.1078 -3.0558,0.1269 -9.0003,0.1269 -5.9457,0 -6.6485,-0.0191 -9.0016,-0.1269 -2.1667,-0.0976 -3.3489,-0.458 -4.1392,-0.7712 -1.0351,-0.3997 -1.7772,-0.8881 -2.5574,-1.6694 -0.7814,-0.7803 -1.2597,-1.5224 -1.6694,-2.5575 -0.3032,-0.7813 -0.6647,-1.9624 -0.7713,-4.1392 -0.1078,-2.3531 -0.1269,-3.0559 -0.1269,-9.0004 0,-5.9456 0.0191,-6.6484 0.1269,-9.0015 0.0977,-2.1668 0.4592,-3.3489 0.7713,-4.1393 0.3996,-1.0351 0.888,-1.7772 1.6694,-2.5574 0.7802,-0.7814 1.5223,-1.2596 2.5574,-1.6694 0.7814,-0.3031 1.9624,-0.6646 4.1392,-0.7713 2.3531,-0.1078 3.0559,-0.1268 9.0016,-0.1268 z m 0,-4.0124 c -6.0534,0 -6.8045,0.0291 -9.1868,0.1369 -2.3722,0.1067 -3.9933,0.4873 -5.409,1.034 -1.4639,0.5669 -2.7034,1.3281 -3.9439,2.5675 -1.2293,1.2406 -1.9916,2.48 -2.5574,3.9439 -0.5468,1.4157 -0.9273,3.0368 -1.0351,5.409 -0.1067,2.3722 -0.1359,3.1334 -0.1359,9.1767 0,6.0523 0.0292,6.8044 0.1359,9.1867 0.1078,2.3722 0.4883,3.9922 1.0351,5.4079 0.5658,1.464 1.3281,2.7045 2.5675,3.9439 1.2394,1.2406 2.48,2.0017 3.9439,2.5675 1.4157,0.5468 3.0357,0.9274 5.409,1.0351 2.3722,0.1078 3.1334,0.137 9.1856,0.137 6.0534,0 6.8045,-0.0292 9.1868,-0.137 2.3722,-0.1077 3.9933,-0.4883 5.4079,-1.0351 1.465,-0.5658 2.7044,-1.3269 3.945,-2.5675 1.2394,-1.2394 2.0006,-2.4799 2.5675,-3.9439 0.5456,-1.4157 0.9273,-3.0357 1.034,-5.4079 0.1078,-2.3722 0.137,-3.1344 0.137,-9.1867 0,-6.0523 -0.0292,-6.8045 -0.137,-9.1868 -0.1067,-2.3722 -0.4884,-3.9922 -1.034,-5.4078 -0.5669,-1.4651 -1.3281,-2.7045 -2.5675,-3.944 -1.2406,-1.2405 -2.48,-2.0017 -3.945,-2.5675 -1.4146,-0.5467 -3.0357,-0.9273 -5.4079,-1.0351 -2.3823,-0.0977 -3.1435,-0.1268 -9.1957,-0.1268 z"
     style="fill:#010101;fill-rule:evenodd"
     id="path8" />
  <path
     d="m 76.1143,759.9909 c -6.3173,0 -11.4321,5.116 -11.4321,11.4321 0,6.3161 5.1249,11.441 11.441,11.441 6.3161,0 11.4422,-5.1148 11.4422,-11.441 -0.0101,-6.3161 -5.135,-11.4321 -11.4511,-11.4321 z m 0,18.8607 c -4.1011,0 -7.4197,-3.3186 -7.4197,-7.4185 0,-4.1011 3.3186,-7.4197 7.4197,-7.4197 4.0999,0 7.4185,3.3186 7.4185,7.4197 0.0101,4.0898 -3.3186,7.4185 -7.4185,7.4185 z"
     style="fill:#010101;fill-rule:evenodd"
     id="path10" />
  <path
     d="m 90.6797,759.5418 c 0,1.4741 -1.2013,2.6753 -2.6753,2.6753 -1.4741,0 -2.6753,-1.2012 -2.6753,-2.6753 0,-1.474 1.2012,-2.6753 2.6753,-2.6753 1.474,0 2.6753,1.1912 2.6753,2.6753 z"
     style="fill:#010101;fill-rule:evenodd"
     id="path12" />
  <path
     d="m 521.9324,178.2587 c 4.2583,0 8.3582,0.604 12.2999,1.812 3.9405,1.208 7.4533,3.0671 10.5351,5.5785 3.0828,2.5103 5.5302,5.7526 7.3422,9.7245 1.8119,3.9731 2.7179,8.7254 2.7179,14.2556 0,5.0846 -0.7477,9.4237 -2.2408,13.0139 -1.4943,3.5914 -3.4645,6.58 -5.9119,8.9634 -2.4475,2.3834 -5.1171,4.2751 -8.0091,5.6739 -2.892,1.3977 -5.8008,2.3666 -8.7242,2.9077 -2.9246,0.54 -5.5943,0.8095 -8.0091,0.8095 -2.352,0 -4.9902,-0.2695 -7.9148,-0.8095 -2.9234,-0.5411 -5.8468,-1.51 -8.7713,-2.9077 -2.9246,-1.3988 -5.5943,-3.2905 -8.0102,-5.6739 -2.416,-2.3834 -4.3694,-5.372 -5.8637,-8.9634 -1.4932,-3.5902 -2.2408,-7.9293 -2.2408,-13.0139 0,-5.5302 0.8902,-10.2825 2.6708,-14.2556 1.7783,-3.9719 4.21,-7.2142 7.2939,-9.7245 3.0828,-2.5114 6.5945,-4.3705 10.5362,-5.5785 3.9405,-1.208 8.0405,-1.812 12.2999,-1.812 z m 0,61.2133 c 2.6697,0 5.5134,-0.3963 8.5334,-1.1912 3.0188,-0.7948 5.8322,-2.2408 8.4379,-4.338 2.6068,-2.0982 4.7354,-5.1171 6.3891,-9.0587 1.6525,-3.9406 2.4788,-9.0251 2.4788,-15.2548 0,-4.9588 -0.5883,-9.1699 -1.7648,-12.6344 -1.1755,-3.4646 -2.7169,-6.3083 -4.6243,-8.5334 -1.9063,-2.2251 -4.0202,-3.9731 -6.3397,-5.244 -2.3205,-1.2719 -4.6253,-2.1454 -6.9133,-2.6236 -2.288,-0.476 -4.3548,-0.714 -6.1971,-0.714 -1.8434,0 -3.9102,0.238 -6.1982,0.714 -2.2891,0.4782 -4.5771,1.3517 -6.8651,2.6236 -2.288,1.2709 -4.402,3.0189 -6.3408,5.244 -1.9388,2.2251 -3.496,5.0688 -4.6725,8.5334 -1.1766,3.4645 -1.7637,7.6756 -1.7637,12.6344 0,6.2297 0.8262,11.3142 2.4799,15.2548 1.6526,3.9416 3.798,6.9605 6.4363,9.0587 2.6371,2.0972 5.4494,3.5432 8.4379,4.338 2.9874,0.7949 5.8154,1.1912 8.4862,1.1912 z"
     style="fill:#000000;fill-rule:evenodd"
     id="path14" />
  <path
     d="m 563.6808,239.3776 v -59.9749 h 6.8651 v 59.9749 z m 14.3016,-34.7071 29.5586,34.7071 h -8.9633 l -26.4118,-30.9877 28.2238,-28.9872 h 2.1925 z"
     style="fill:#000000;fill-rule:evenodd"
     id="path16" />
  <path
     d="m 425.3385,237.7565 h 23.8364 v 1.6211 h -30.7015 v -59.9749 h 6.8651 z"
     style="fill:#000000;fill-rule:evenodd"
     id="path18" />
  <path
     d="m 489.4055,178.2587 c 4.2582,0 8.3582,0.604 12.2999,1.812 3.9405,1.208 7.4533,3.0671 10.535,5.5785 3.0829,2.5103 5.5303,5.7526 7.3423,9.7245 1.8119,3.9731 2.7179,8.7254 2.7179,14.2556 0,5.0846 -0.7477,9.4237 -2.2408,13.0139 -1.4943,3.5914 -3.4645,6.58 -5.912,8.9634 -2.4474,2.3834 -5.117,4.2751 -8.009,5.6739 -2.892,1.3977 -5.8008,2.3666 -8.7242,2.9077 -2.9246,0.54 -5.5943,0.8095 -8.0091,0.8095 -2.352,0 -4.9903,-0.2695 -7.9148,-0.8095 -2.9234,-0.5411 -5.8468,-1.51 -8.7714,-2.9077 -2.9245,-1.3988 -5.5942,-3.2905 -8.0101,-5.6739 -2.416,-2.3834 -4.3695,-5.372 -5.8637,-8.9634 -1.4932,-3.5902 -2.2409,-7.9293 -2.2409,-13.0139 0,-5.5302 0.8903,-10.2825 2.6709,-14.2556 1.7783,-3.9719 4.2099,-7.2142 7.2939,-9.7245 3.0828,-2.5114 6.5945,-4.3705 10.5362,-5.5785 3.9405,-1.208 8.0405,-1.812 12.2999,-1.812 z m 0,61.2133 c 2.6697,0 5.5134,-0.3963 8.5333,-1.1912 3.0189,-0.7948 5.8323,-2.2408 8.438,-4.338 2.6068,-2.0982 4.7354,-5.1171 6.3891,-9.0587 1.6525,-3.9406 2.4788,-9.0251 2.4788,-15.2548 0,-4.9588 -0.5883,-9.1699 -1.7648,-12.6344 -1.1755,-3.4646 -2.7169,-6.3083 -4.6243,-8.5334 -1.9063,-2.2251 -4.0202,-3.9731 -6.3397,-5.244 -2.3205,-1.2719 -4.6253,-2.1454 -6.9133,-2.6236 -2.288,-0.476 -4.3548,-0.714 -6.1971,-0.714 -1.8434,0 -3.9102,0.238 -6.1982,0.714 -2.2891,0.4782 -4.5771,1.3517 -6.8651,2.6236 -2.288,1.2709 -4.402,3.0189 -6.3408,5.244 -1.9389,2.2251 -3.496,5.0688 -4.6725,8.5334 -1.1766,3.4645 -1.7637,7.6756 -1.7637,12.6344 0,6.2297 0.8262,11.3142 2.4799,15.2548 1.6526,3.9416 3.798,6.9605 6.4362,9.0587 2.6372,2.0972 5.4494,3.5432 8.438,4.338 2.9874,0.7949 5.8154,1.1912 8.4862,1.1912 z"
     style="fill:#000000;fill-rule:evenodd"
     id="path20" />
  <path
     d="m 468.706,617.2285 c -3.1165,0.1381 -5.6616,-0.4344 -7.6352,-1.7143 -1.9736,-1.2809 -3.3242,-3.0817 -4.0506,-5.4011 -0.7263,-2.3205 -0.8476,-4.9004 -0.3637,-7.7396 0.6242,-3.185 2.2857,-6.699 4.9857,-10.543 2.7012,-3.8428 6.1635,-7.8766 10.388,-12.1011 4.2246,-4.2246 8.951,-8.4661 14.1781,-12.7243 5.2283,-4.2594 10.717,-8.3616 16.465,-12.3089 5.7469,-3.9473 11.4602,-7.5836 17.1386,-10.9078 5.6099,-3.2546 11.0795,-5.7469 16.4122,-7.4781 5.3326,-1.7311 10.0411,-2.7707 14.1276,-3.1165 4.0853,-0.3457 6.9582,-0.1032 8.6209,0.7275 0.6242,0.3458 1.0564,0.7095 1.2989,1.0901 0.2414,0.3817 0.3975,0.7444 0.4671,1.0901 0.2761,2.0085 -0.1729,3.9136 -1.3506,5.7133 -1.1777,1.8007 -2.7011,3.4454 -4.5704,4.9341 -1.8692,1.4897 -3.7912,2.7707 -5.7648,3.844 -1.9737,1.0732 -3.688,1.9208 -5.1418,2.5439 -1.4539,0.6242 -2.251,0.97 -2.3891,1.0396 -0.6242,0.1392 -1.0384,-0.0696 -1.2472,-0.6231 -0.2077,-0.623 -0.0337,-1.0384 0.5198,-1.2461 0.0696,0 0.7443,-0.2773 2.0264,-0.8308 1.2798,-0.5546 2.856,-1.3169 4.7252,-2.2869 1.8704,-0.9688 3.7048,-2.1285 5.5067,-3.4791 1.7996,-1.3506 3.2535,-2.8044 4.3616,-4.3627 1.108,-1.5582 1.5582,-3.2018 1.3505,-4.9341 0,-0.2077 -0.2088,-0.4502 -0.6231,-0.7263 -1.108,-0.5546 -2.9436,-0.7792 -5.5055,-0.6759 -2.5619,0.1033 -5.5751,0.5367 -9.0374,1.2989 -3.4623,0.7612 -7.1492,1.9041 -11.0616,3.4275 -3.9125,1.5235 -7.8093,3.4275 -11.6858,5.7133 -5.6785,3.3242 -11.3748,6.9594 -17.0881,10.9066 -5.7132,3.9473 -11.1491,8.0159 -16.3078,12.2045 -5.1586,4.1898 -9.8154,8.3459 -13.9715,12.4649 -4.155,4.1213 -7.5308,8.0338 -10.1276,11.7386 -2.5967,3.7048 -4.1729,7.011 -4.7264,9.9199 -0.623,3.3927 -0.1381,6.3531 1.455,8.8814 1.5919,2.5271 4.2931,3.7564 8.1011,3.6879 3.8788,-0.0707 7.3591,-0.5198 10.4408,-1.3506 3.0806,-0.8319 6.0242,-1.9568 8.8286,-3.3769 2.8044,-1.4191 5.7481,-2.9942 8.8298,-4.7253 3.0806,-1.7312 6.5776,-3.4971 10.4913,-5.2979 3.9124,-1.8007 8.4996,-3.4971 13.7627,-5.089 0.9688,-0.2773 1.4538,-0.174 1.4538,0.311 0,0.8307 -0.2077,1.2809 -0.6231,1.3494 -5.5403,1.6627 -10.2656,3.377 -14.1792,5.1429 -3.9125,1.7649 -7.3748,3.496 -10.3869,5.1935 -3.0121,1.6963 -5.8861,3.2377 -8.622,4.6231 -2.7348,1.3843 -5.6436,2.544 -8.7253,3.4791 -3.0818,0.9341 -6.6653,1.5055 -10.7507,1.7143 z"
     style="fill:#000000;fill-rule:evenodd"
     id="path22" />
  <path
     d="m 562.2923,566.9523 c 0.7623,0.3469 1.0744,0.97 0.9363,1.8704 -0.0707,1.3853 -0.8835,2.856 -2.4418,4.4143 -1.5582,1.5594 -3.5319,3.1165 -5.9209,4.6748 -2.3879,1.5582 -4.9678,3.0469 -7.7385,4.4659 -2.7696,1.4202 -5.4707,2.7359 -8.1023,3.9473 -2.6315,1.2125 -4.9161,2.2161 -6.8561,3.0121 -1.9388,0.7971 -3.2534,1.3337 -3.9472,1.611 l -0.6231,0.6231 c -0.3458,0.2773 -0.7612,0.6399 -1.2462,1.0901 -0.485,0.4502 -1.0036,0.952 -1.5582,1.5066 3.185,-2.0084 5.9388,-3.185 8.2583,-3.5319 2.3194,-0.3458 3.9293,-0.1381 4.8297,0.6231 1.0396,0.7623 1.2124,1.8356 0.5198,3.2198 -0.4839,0.8319 -1.1777,1.6279 -2.077,2.3902 -0.9003,0.7622 -1.8703,1.4538 -2.9088,2.0769 2.0769,-0.2773 4.5524,-0.6747 7.4264,-1.1945 2.874,-0.5198 6.2162,-1.3326 10.0243,-2.4407 0.6231,-0.1392 1.0036,0.0685 1.1429,0.6231 0.138,0.623 -0.0697,1.0036 -0.6231,1.1417 -5.6785,1.5931 -10.3184,2.6495 -13.9199,3.1693 -3.6004,0.5187 -6.4744,0.8476 -8.6221,0.9868 -1.7996,0.6927 -3.2198,1.0733 -4.2582,1.1418 l -0.9352,0.1044 c -0.6927,0 -1.1766,-0.1381 -1.4539,-0.4154 -0.2076,-0.2077 -0.3109,-0.4502 -0.3109,-0.7275 0,-0.2077 0.1033,-0.4154 0.3109,-0.6231 0.5546,-0.5546 1.2473,-0.8835 2.0781,-0.9868 0.8308,-0.1033 1.9388,-0.1908 3.3231,-0.2593 l 0.8319,-0.1044 c 1.5919,-0.6231 3.2029,-1.4539 4.8297,-2.4935 1.6278,-1.0384 2.7875,-2.1465 3.4791,-3.3231 0.1392,-0.3457 0.192,-0.5546 0.1572,-0.6242 -0.0348,-0.0684 -0.0865,-0.138 -0.1572,-0.2065 -0.4839,-0.4154 -1.6267,-0.485 -3.4264,-0.2088 -1.8007,0.2773 -4.0517,1.1608 -6.7517,2.6494 -2.7011,1.4898 -5.7143,3.8609 -9.0385,7.1155 -0.4143,0.3458 -0.8656,0.3458 -1.3495,0 -0.1392,-0.1392 -0.2077,-0.2773 -0.2077,-0.4154 v -0.2077 c 0,-0.2773 0.0685,-0.485 0.2077,-0.6242 2.4239,-3.0469 4.5019,-5.4191 6.2319,-7.1154 1.7312,-1.6964 3.0481,-2.9594 3.9473,-3.7901 l 0.7275,-0.6231 c 3.7385,-3.4634 7.496,-6.6664 11.2704,-9.6089 3.7744,-2.9436 7.3052,-5.4707 10.5946,-7.5836 3.2905,-2.1117 6.1118,-3.652 8.4671,-4.622 2.3542,-0.9689 3.981,-1.2113 4.8802,-0.7275 z m -0.8307,1.766 v -0.2066 l -0.4154,-0.1044 c -0.8993,0 -2.7012,0.6916 -5.4012,2.0769 -2.7,1.3854 -6.059,3.4634 -10.0747,6.2319 -4.0181,2.7708 -8.4503,6.2679 -13.2969,10.4924 2.7697,-1.1776 5.7997,-2.545 9.0891,-4.1033 3.2894,-1.5583 6.4407,-3.1861 9.4528,-4.8825 3.0121,-1.6963 5.5224,-3.3758 7.5309,-5.0374 2.0084,-1.6626 3.0469,-3.1513 3.1154,-4.467 z"
     style="fill:#000000;fill-rule:evenodd"
     id="path24" />
  <path
     d="m 548.5824,602.3735 c -0.6242,0 -1.0396,-0.0337 -1.2473,-0.1033 -0.4839,-0.2077 -0.796,-0.6579 -0.9352,-1.3506 -0.1381,-1.8703 2.1465,-4.2582 6.8561,-7.1671 3.3242,-2.0769 6.1118,-3.1165 8.3627,-3.1165 2.2498,0 3.7553,0.5546 4.5176,1.6627 0.2773,0.5535 0.4154,1.0036 0.4154,1.3494 l 1.0385,-0.4154 c 0.623,-0.2761 1.0384,-0.1728 1.2461,0.3121 0.2773,0.4154 0.2784,0.7264 10e-4,0.9341 -0.2773,0.2088 -0.4849,0.3469 -0.6242,0.4165 -2.9773,1.7312 -4.9341,2.9953 -5.8681,3.7901 -0.9352,0.7971 -1.4718,1.3337 -1.6099,1.611 0.1381,0 0.2593,0.0169 0.3626,0.0517 0.1033,0.0348 0.2605,0.0516 0.4682,0.0516 1.8007,0.1392 4.0337,0 6.7,-0.4154 2.6652,-0.4153 5.3663,-0.952 8.1011,-1.6099 2.736,-0.6578 5.1082,-1.2809 7.1166,-1.8692 2.0073,-0.5883 3.2535,-0.9868 3.7385,-1.1945 0.623,-0.1392 1.0036,0.0685 1.1428,0.6231 0.1392,0.5534 -0.0348,0.934 -0.5198,1.1417 -0.623,0.2773 -1.9736,0.7275 -4.0505,1.3506 -2.0769,0.6231 -4.5008,1.2641 -7.2704,1.922 -2.7707,0.6579 -5.5055,1.1765 -8.2066,1.5571 -2.7012,0.3817 -4.9858,0.503 -6.8561,0.3649 -1.5235,-0.0696 -2.3891,-0.5894 -2.5968,-1.5583 -0.1392,-0.4838 0,-1.0036 0.4154,-1.5582 -2.0084,0.8319 -3.9989,1.5762 -5.9725,2.2329 -1.9737,0.6579 -3.5488,0.9869 -4.7253,0.9869 z m -0.3121,-1.7649 c 0.7623,0.0685 2.4406,-0.3132 5.0374,-1.144 2.5967,-0.8307 6.215,-2.3542 10.855,-4.5692 0.5546,-0.5546 0.6927,-1.0733 0.4154,-1.5582 -0.3458,-0.5546 -1.4022,-0.8488 -3.1682,-0.8836 -1.7648,-0.0348 -4.1718,0.9172 -7.2187,2.8572 -2.1477,1.3158 -3.6363,2.4407 -4.4671,3.3747 -0.8319,0.9363 -1.3157,1.5762 -1.4538,1.9231 z"
     style="fill:#000000;fill-rule:evenodd"
     id="path26" />
  <path
     d="m 612.9817,595.8295 c 0.2761,0.5546 0.1381,0.9699 -0.4154,1.2461 -2.5619,1.0396 -5.5056,2.251 -8.8298,3.6363 -3.3242,1.3854 -6.8201,2.7696 -10.4912,4.155 l -8.5166,3.2198 -1.9736,1.5583 c -4.7792,3.6699 -8.5704,6.4396 -11.3748,8.3099 -2.8044,1.8704 -4.8993,3.1334 -6.2847,3.7912 -1.3854,0.6579 -2.389,0.9869 -3.0121,0.9869 -0.2773,0 -0.5029,-0.0517 -0.6747,-0.1561 -0.1729,-0.1033 -0.329,-0.1897 -0.4682,-0.2593 -0.623,-0.485 -0.8128,-1.1418 -0.5714,-1.9737 0.2425,-0.8307 0.3985,-1.3842 0.467,-1.6615 0.7623,-1.6627 3.1525,-3.4623 7.1682,-5.4011 4.0169,-1.9389 9.2788,-4.1898 15.788,-6.7517 0.97,-0.7623 1.9568,-1.5594 2.9605,-2.3902 1.0048,-0.8308 2.0264,-1.6615 3.0649,-2.4923 -1.0385,0.4154 -1.9389,0.6231 -2.7012,0.6231 -0.8307,0 -1.401,-0.1729 -1.7143,-0.5198 -0.3109,-0.3458 -0.5355,-0.6568 -0.6736,-0.9341 -0.4154,-1.1776 -0.3469,-2.2857 0.2066,-3.3242 0.6927,-1.1776 1.8704,-2.1117 3.5319,-2.8044 1.6627,-0.6938 3.3422,-1.2125 5.0385,-1.5594 1.6964,-0.3457 2.9594,-0.5523 3.7912,-0.623 l 0.6231,-0.1033 c 0.485,-0.1392 0.9172,-0.1044 1.2989,0.1033 0.3806,0.2088 0.6748,0.4849 0.8825,0.8319 0.2773,0 0.5534,0.138 0.8307,0.4153 0.4154,0.4154 0.3806,0.8308 -0.1033,1.2462 l -1.1428,1.0396 c -0.1392,0.0685 -0.2773,0.1717 -0.4154,0.311 0,0 -0.0696,0.0696 -0.2088,0.2076 l -9.555,7.6869 3.1154,-1.1428 c 3.6711,-1.3843 7.1502,-2.7528 10.4396,-4.1034 3.2894,-1.3494 6.1803,-2.5451 8.6737,-3.5824 0.5535,-0.2088 0.9689,-0.0707 1.2462,0.4143 z m -26.5914,4.3626 c 0.0696,0.0696 0.1381,0.1392 0.2077,0.2077 0.0696,0.0708 0.2425,0.1044 0.5186,0.1044 0.9004,0 2.0949,-0.3637 3.5847,-1.0912 1.4887,-0.7264 2.9245,-1.5571 4.3099,-2.4923 1.3854,-0.9352 2.4238,-1.6447 3.1165,-2.1297 0.2773,-0.2077 0.4154,-0.3806 0.4154,-0.5187 -0.0696,0 -0.1044,-0.0179 -0.1044,-0.0527 0,-0.0337 -0.0337,-0.0517 -0.1033,-0.0517 l -0.7275,0.1044 c -3.8777,0.5535 -6.5956,1.2282 -8.1539,2.0253 -1.5582,0.796 -2.5103,1.5055 -2.856,2.1286 -0.3469,0.4154 -0.4154,1.0036 -0.2077,1.7659 z m -24.3068,20.5672 c 0.9004,0.0696 2.8392,-0.8487 5.8165,-2.7527 2.9784,-1.9041 6.4755,-4.3796 10.4913,-7.4265 -4.0158,1.6616 -7.5308,3.2715 -10.5429,4.8297 -3.0121,1.5583 -4.7612,2.8909 -5.2451,3.999 -0.3458,0.6926 -0.5198,1.1428 -0.5198,1.3505 z"
     style="fill:#000000;fill-rule:evenodd"
     id="path28" />
  <path
     d="m 614.9553,602.3735 c -1.3854,-0.1381 -2.5451,-0.3975 -3.4802,-0.7792 -0.9341,-0.3805 -1.5751,-0.9172 -1.9209,-1.6087 -0.0708,-0.3469 -0.1044,-0.7623 -0.1044,-1.2473 0,-0.4839 0.2761,-1.0733 0.8307,-1.766 0.485,-0.623 1.1597,-1.2113 2.0253,-1.7659 0.8656,-0.5535 1.8176,-1.0733 2.8572,-1.5583 l 0.2066,-0.1033 c 1.3853,-0.623 2.7887,-1.1249 4.2077,-1.5066 1.4202,-0.3806 2.5103,-0.6051 3.2726,-0.6747 0.4142,-0.0696 1.108,-0.0876 2.0769,-0.0528 0.9689,0.0348 1.5571,0.4334 1.7659,1.1946 0.1381,0.2773 0.1213,0.659 -0.0516,1.1428 -0.174,0.485 -0.7454,1.0048 -1.7143,1.5583 -1.1777,0.6231 -2.718,0.9531 -4.622,0.9868 -1.904,0.0348 -3.4803,-0.1897 -4.7264,-0.6747 -1.8704,0.8308 -3.1513,1.6963 -3.844,2.5967 -0.4839,0.485 -0.6231,0.8656 -0.4154,1.1429 0.1392,0.2762 0.5198,0.5366 1.1429,0.778 0.623,0.2425 1.3146,0.3985 2.0769,0.4681 1.3158,0.0696 4.2425,-0.2593 8.7781,-0.9868 4.5356,-0.7275 9.9535,-2.1297 16.2562,-4.2066 0.623,-0.1392 1.0036,0.0685 1.1428,0.6231 0.2773,0.623 0.1033,1.0036 -0.5198,1.1417 -6.0938,2.0085 -11.3916,3.3938 -15.8924,4.1561 -4.5019,0.7612 -7.6172,1.1418 -9.3484,1.1418 z m 3.5308,-8.1012 c 0.9688,0.0685 1.9736,0.0517 3.0132,-0.0527 1.0373,-0.1033 1.8692,-0.329 2.4923,-0.6748 l 0.6231,-0.4153 h -1.5583 c -1.1069,0.138 -2.6315,0.5186 -4.5703,1.1428 z"
     style="fill:#000000;fill-rule:evenodd"
     id="path30" />
  <path
     d="m 680.603,575.9898 c 0.3458,0.4153 0.2425,0.8307 -0.3121,1.2461 -0.5535,0.2077 -0.97,0.0696 -1.2473,-0.4154 -0.2077,-0.485 -0.8476,-0.7791 -1.9208,-0.8824 -1.0733,-0.1044 -3.047,-0.0876 -5.9198,0.0517 -2.8741,0.1392 -7.1851,0.4165 -12.9331,0.8307 l -0.2088,0.1044 0.5198,0.8308 c 0.4849,0.7623 0.9868,1.7312 1.5066,2.9077 0.5198,1.1788 0.7263,2.5462 0.623,4.1033 -0.1032,1.5583 -0.8139,3.2894 -2.1296,5.1935 -1.3158,1.9051 -3.6015,3.9652 -6.855,6.1814 0,0.0696 -0.0348,0.1392 -0.1044,0.2077 -2.6304,2.0769 -5.3843,3.6015 -8.2583,4.5703 -2.8729,0.9689 -5.0374,1.4539 -6.4913,1.4539 -0.7623,0 -1.2809,-0.155 -1.5582,-0.4671 -0.2773,-0.3109 -0.4502,-0.5366 -0.5198,-0.6747 -0.4154,-1.2473 0.9352,-3.0132 4.0517,-5.2978 3.323,-2.4935 6.0758,-3.7744 8.2572,-3.844 2.1813,-0.0696 3.6183,0.3121 4.311,1.1428 0.1392,0.1393 0.2773,0.3469 0.4154,0.6231 2.4934,-1.8692 4.2593,-3.5835 5.2989,-5.1418 1.0374,-1.5571 1.592,-2.9593 1.6604,-4.2066 0.0697,-1.2462 -0.1044,-2.3542 -0.5186,-3.3242 -0.4154,-0.9689 -0.8319,-1.7996 -1.2462,-2.4923 -0.3469,-0.5535 -0.6231,-1.0385 -0.8319,-1.455 -0.2077,-0.4154 -0.2077,-0.8308 0,-1.2461 0.2088,-0.4154 0.5367,-0.6748 0.9868,-0.7792 0.4514,-0.1033 0.7444,-0.1549 0.8825,-0.1549 4.9172,-0.3469 8.8129,-0.6062 11.6869,-0.7802 2.8729,-0.1729 5.0385,-0.2425 6.4923,-0.2077 1.4539,0.0348 2.4755,0.2077 3.0638,0.5198 0.5883,0.3121 1.0216,0.7791 1.2989,1.4022 z m -30.8508,19.2166 c 0.2762,-0.2762 0.3975,-0.4682 0.3638,-0.5714 -0.0348,-0.1033 -0.0876,-0.1898 -0.1561,-0.2594 -0.3458,-0.485 -1.4201,-0.6062 -3.2198,-0.3637 -1.8007,0.2425 -4.0865,1.3685 -6.8561,3.3769 -1.1776,0.8993 -1.9905,1.6088 -2.4406,2.1286 -0.4513,0.5187 -0.7107,0.8824 -0.7792,1.0912 h 0.2077 c 1.2462,0 3.0806,-0.4333 5.5044,-1.2989 2.425,-0.8656 4.8129,-2.1297 7.1671,-3.7912 z"
     style="fill:#000000;fill-rule:evenodd"
     id="path32" />
  <path
     d="m 698.3647,595.9339 c 0.138,0.623 -0.0708,1.0036 -0.6242,1.1417 -0.2077,0.0707 -1.2294,0.3638 -3.0638,0.8836 -1.8355,0.5197 -4.0854,1.108 -6.7517,1.7659 -2.6663,0.6579 -5.3843,1.2462 -8.155,1.766 -2.7696,0.5186 -5.1586,0.7791 -7.1671,0.7791 h -1.2461 c -1.455,-0.0696 -2.2847,-0.5535 -2.4924,-1.4539 -0.2088,-0.9003 0.3447,-1.9736 1.6605,-3.2209 h -0.8308 c -1.2462,0 -2.4755,-0.0516 -3.6868,-0.156 -1.2114,-0.1033 -2.1297,-0.1898 -2.7528,-0.2594 l -6.2319,5.1935 c -0.1392,0.1392 -0.3458,0.2088 -0.6231,0.2088 -0.2773,0 -0.5198,-0.1044 -0.7275,-0.3121 -0.3457,-0.485 -0.3121,-0.9004 0.1033,-1.2473 l 6.4407,-5.4011 c 0.0685,0 0.1729,-0.0685 0.311,-0.2066 l 4.2594,-3.533 c 0.485,-0.3458 0.9352,-0.311 1.3506,0.1044 0.3457,0.4154 0.2761,0.8656 -0.2089,1.3506 l -2.7,2.1813 c 1.8008,0.1392 3.4623,0.2077 4.9858,0.2077 1.5234,0 2.4934,-0.1033 2.9088,-0.311 0.4839,-0.3469 1.0037,-0.7106 1.5583,-1.0912 0.5534,-0.3806 1.108,-0.7444 1.6615,-1.0913 l 0.7264,-0.5186 c 0.1392,-0.2088 0.3121,-0.3121 0.5198,-0.3121 0.5546,-0.1392 0.9003,0.0348 1.0395,0.5198 0.2077,0.5534 -0.2425,1.1428 -1.3505,1.7659 -0.6231,0.4143 -1.1777,0.796 -1.6616,1.1418 -0.485,0.3469 -0.9351,0.6578 -1.3505,0.9351 0,0.1393 -0.0696,0.2077 -0.2077,0.2077 h -0.1044 c -1.3158,0.9689 -2.1814,1.7132 -2.5967,2.233 -0.4154,0.5198 -0.6579,0.8835 -0.7275,1.0912 0.0696,0 0.1729,0.0169 0.3121,0.0517 0.1392,0.0348 0.3458,0.0516 0.623,0.0516 1.3854,0.1392 3.1502,0.0528 5.2979,-0.2593 2.1465,-0.311 4.3795,-0.7275 6.7,-1.2462 2.3195,-0.5198 4.5008,-1.0564 6.544,-1.6099 2.0422,-0.5546 3.7217,-1.0216 5.0374,-1.4033 1.3158,-0.3806 1.9737,-0.5703 1.9737,-0.5703 0.6231,-0.1392 1.0384,0.0685 1.2473,0.6231 z"
     style="fill:#000000;fill-rule:evenodd"
     id="path34" />
  <path
     d="m 734.4077,595.9339 c 0.2773,0.623 0.1033,1.0036 -0.5198,1.1417 -0.2076,0.0707 -1.2293,0.3638 -3.0637,0.8836 -1.8356,0.5197 -4.0865,1.108 -6.7517,1.7659 -2.6674,0.6579 -5.3854,1.2462 -8.1539,1.766 -2.7707,0.5186 -5.1598,0.7791 -7.1682,0.7791 h -1.2461 c -1.4539,-0.0696 -2.2858,-0.5535 -2.4935,-1.4539 -0.2077,-0.6926 0.0348,-1.4549 0.7275,-2.2857 0.6927,-0.8319 1.6963,-1.7312 3.0121,-2.7011 -0.9689,0.2088 -1.9557,0.3469 -2.9605,0.4153 -1.0047,0.0697 -1.922,0.0697 -2.7527,10e-4 l -0.1033,0.6231 c -0.4165,1.108 -1.455,2.3025 -3.1165,3.5835 -1.6616,1.281 -3.4275,1.9209 -5.2979,1.9209 l -0.623,-0.1033 c -0.6231,0 -1.0385,-0.3458 -1.2462,-1.0385 -0.1381,-0.8319 0.3985,-1.922 1.6099,-3.2725 1.2125,-1.3506 2.9605,-2.7528 5.2462,-4.2067 0.3458,-0.2077 0.6399,-0.4153 0.8824,-0.6242 0.2425,-0.2077 0.5018,-0.3805 0.778,-0.5186 l 1.1429,-0.8308 c 0.5546,-0.3458 1.0048,-0.2773 1.3506,0.2077 0.2773,0.5535 0.174,0.97 -0.311,1.2461 l -1.0396,0.8319 -0.2066,0.1033 c 0.6916,0.3458 1.7817,0.4502 3.2715,0.311 1.4886,-0.1381 3.03,-0.4143 4.6231,-0.8308 1.5919,-0.4154 2.7685,-0.8307 3.5308,-1.2461 0.3457,-0.1392 0.6578,-0.1044 0.9351,0.1033 0.0696,0 0.1044,0.0179 0.1044,0.0527 0,0.0348 0.0337,0.0517 0.1033,0.0517 0,0.0696 0.018,0.1044 0.0517,0.1044 0.0348,0 0.0516,0.0337 0.0516,0.1033 0,0.0696 0.018,0.1212 0.0528,0.156 0.0337,0.0337 0.0516,0.0865 0.0516,0.1561 0.0696,0.4838 -0.4154,1.0036 -1.4538,1.5582 -2.7012,1.8008 -4.4671,3.0986 -5.2979,3.8945 -0.8307,0.7971 -1.2809,1.3686 -1.3505,1.7143 0.0696,0 0.156,0.0169 0.2604,0.0517 0.1033,0.0348 0.293,0.0516 0.5703,0.0516 1.4539,0.1392 3.2558,0.0528 5.4023,-0.2593 2.1465,-0.311 4.3806,-0.7275 6.7,-1.2462 2.3195,-0.5198 4.5008,-1.0564 6.544,-1.6099 2.0422,-0.5546 3.7217,-1.0216 5.0374,-1.4033 1.3158,-0.3806 1.9737,-0.5703 1.9737,-0.5703 0.623,-0.1392 1.0036,0.0685 1.1428,0.6231 z m -33.2409,0.3121 c 0.0707,-0.3458 0.0359,-0.5198 -0.1033,-0.5198 -0.2077,-0.2077 -0.3109,-0.3806 -0.3109,-0.5198 l -0.3121,0.1044 c -1.9389,1.2461 -3.3411,2.3194 -4.2067,3.2198 -0.8655,0.8992 -1.4022,1.5582 -1.6099,1.9736 1.3843,-0.0696 2.7528,-0.5714 4.1034,-1.5066 1.3494,-0.9352 2.1633,-1.8513 2.4395,-2.7516 z"
     style="fill:#000000;fill-rule:evenodd"
     id="path36" />
  <path
     d="m 748.4287,589.4943 c -0.5535,0 -1.1766,-0.1392 -1.8704,-0.4165 -0.7611,-0.4154 -1.2113,-0.9869 -1.3494,-1.7143 -0.1392,-0.7264 -0.2077,-1.0901 -0.2077,-1.0901 0,-0.5546 0.2773,-0.8308 0.8308,-0.8308 0.4838,0.0696 0.7263,0.3469 0.7263,0.8308 0,0 0.0348,0.1728 0.1044,0.5197 0.0696,0.3458 0.3469,0.6568 0.8308,0.9341 0.3458,0.1392 1.0048,0.0864 1.9736,-0.156 0.9689,-0.2414 2.5968,-0.9161 4.8825,-2.0242 0.5535,-0.2088 0.9689,-0.1044 1.2462,0.311 0.2076,0.4154 0.0696,0.7623 -0.4154,1.0396 -1.455,0.6915 -2.718,1.2966 -3.7913,1.8164 -1.0732,0.5198 -2.0601,0.7803 -2.9604,0.7803 z m -17.6584,12.8792 c -0.4154,0 -0.7275,-0.0337 -0.9352,-0.1033 -0.623,-0.2773 -0.934,-0.7275 -0.934,-1.3506 -0.0707,-0.8308 0.4838,-1.8872 1.6604,-3.1681 1.1788,-1.281 2.8751,-2.6136 5.0913,-3.999 0.3458,-0.2077 0.6567,-0.4153 0.934,-0.6242 0.2773,-0.2077 0.5187,-0.3805 0.7264,-0.5186 l 1.2473,-0.8308 c 0.4838,-0.3458 0.9003,-0.2773 1.2461,0.2077 0.4154,0.5535 0.3121,0.97 -0.311,1.2461 l -1.0395,0.8319 c -0.2773,0.2077 -0.5535,0.4143 -0.8297,0.6231 -0.2773,0.2077 -0.5894,0.4143 -0.9363,0.6231 -2.1454,1.3158 -3.6352,2.4407 -4.4659,3.3747 -0.8308,0.9363 -1.3158,1.5762 -1.4539,1.9231 0.6231,0.0685 1.6627,-0.174 3.1165,-0.7274 1.4539,-0.5546 3.0986,-1.2462 4.933,-2.0781 1.8344,-0.8308 3.6531,-1.6963 5.4539,-2.5967 1.8007,-0.8993 3.359,-1.6616 4.6736,-2.2846 0.5546,-0.3458 0.9869,-0.5546 1.299,-0.6242 0.3121,-0.0685 0.6062,0.1044 0.8824,0.5198 0.2773,0.5534 -0.1718,1.1765 -1.3506,1.8703 -2.7,1.8008 -4.4659,3.0986 -5.2967,3.8945 -0.8308,0.7971 -1.281,1.3686 -1.3506,1.7143 0.0696,0 0.1729,0.0169 0.3121,0.0517 0.1381,0.0348 0.311,0.0516 0.5187,0.0516 1.455,0.1392 3.2557,0.0528 5.4023,-0.2593 2.1454,-0.311 4.3795,-0.7275 6.6989,-1.2462 2.3205,-0.5198 4.5019,-1.0564 6.544,-1.6099 2.0432,-0.5546 3.7216,-1.0216 5.0385,-1.4033 1.3158,-0.3806 1.9736,-0.5703 1.9736,-0.5703 0.6231,-0.1392 1.0037,0.0685 1.1418,0.6231 0.2773,0.623 0.1044,1.0036 -0.5187,1.1417 -0.1381,0.0707 -0.8992,0.3132 -2.2846,0.7275 -1.3854,0.4154 -3.1176,0.9004 -5.1946,1.455 -2.0769,0.5535 -4.293,1.0732 -6.6473,1.5571 -2.3553,0.485 -4.6062,0.8835 -6.7516,1.1945 -2.1466,0.3121 -3.9821,0.3986 -5.5056,0.2605 -1.4538,-0.0696 -2.2846,-0.5535 -2.4934,-1.4539 -0.2077,-0.8307 0.1381,-1.7322 1.0384,-2.7011 -3.185,1.5235 -5.6773,2.6147 -7.478,3.2714 -1.8008,0.6579 -3.185,0.9869 -4.155,0.9869 z"
     style="fill:#000000;fill-rule:evenodd"
     id="path38" />
  <path
     d="m 847.4183,595.8295 c 0.2762,0.5546 0.1381,0.9699 -0.4154,1.2461 -2.5619,1.0396 -5.5055,2.251 -8.8297,3.6363 -3.3242,1.3854 -6.8202,2.7696 -10.4913,4.155 l -8.5165,3.2198 -1.9736,1.5583 c -4.7792,3.6699 -8.5704,6.4396 -11.3749,8.3099 -2.8044,1.8704 -4.8993,3.1334 -6.2846,3.7912 -1.3854,0.6579 -2.389,0.9869 -3.0121,0.9869 -0.2773,0 -0.503,-0.0517 -0.6747,-0.1561 -0.1729,-0.1033 -0.329,-0.1897 -0.4682,-0.2593 -0.6231,-0.485 -0.8128,-1.1418 -0.5714,-1.9737 0.2425,-0.8307 0.3985,-1.3842 0.467,-1.6615 0.7623,-1.6627 3.1524,-3.4623 7.1682,-5.4011 4.0169,-1.9389 9.2788,-4.1898 15.788,-6.7517 0.97,-0.7623 1.9568,-1.5594 2.9605,-2.3902 1.0047,-0.8308 2.0264,-1.6615 3.0648,-2.4923 -1.0384,0.4154 -1.9388,0.6231 -2.7011,0.6231 -0.8308,0 -1.4011,-0.1729 -1.7143,-0.5198 -0.311,-0.3458 -0.5355,-0.6568 -0.6736,-0.9341 -0.4154,-1.1776 -0.3469,-2.2857 0.2066,-3.3242 0.6927,-1.1776 1.8703,-2.1117 3.5319,-2.8044 1.6626,-0.6938 3.3421,-1.2125 5.0385,-1.5594 1.6963,-0.3457 2.9593,-0.5523 3.7912,-0.623 l 0.6231,-0.1033 c 0.485,-0.1392 0.9172,-0.1044 1.2989,0.1033 0.3806,0.2088 0.6747,0.4849 0.8824,0.8319 0.2773,0 0.5535,0.138 0.8308,0.4153 0.4154,0.4154 0.3806,0.8308 -0.1033,1.2462 l -1.1429,1.0396 c -0.1392,0.0685 -0.2773,0.1717 -0.4153,0.311 0,0 -0.0697,0.0696 -0.2089,0.2076 l -9.5549,7.6869 3.1153,-1.1428 c 3.6712,-1.3843 7.1503,-2.7528 10.4397,-4.1034 3.2894,-1.3494 6.1802,-2.5451 8.6737,-3.5824 0.5535,-0.2088 0.9688,-0.0707 1.2461,0.4143 z m -26.5914,4.3626 c 0.0697,0.0696 0.1381,0.1392 0.2077,0.2077 0.0696,0.0708 0.2425,0.1044 0.5187,0.1044 0.9004,0 2.0949,-0.3637 3.5847,-1.0912 1.4886,-0.7264 2.9245,-1.5571 4.3099,-2.4923 1.3853,-0.9352 2.4238,-1.6447 3.1165,-2.1297 0.2773,-0.2077 0.4154,-0.3806 0.4154,-0.5187 -0.0696,0 -0.1044,-0.0179 -0.1044,-0.0527 0,-0.0337 -0.0337,-0.0517 -0.1033,-0.0517 l -0.7275,0.1044 c -3.8777,0.5535 -6.5957,1.2282 -8.1539,2.0253 -1.5583,0.796 -2.5103,1.5055 -2.8561,2.1286 -0.3469,0.4154 -0.4153,1.0036 -0.2077,1.7659 z m -24.3067,20.5672 c 0.9004,0.0696 2.8392,-0.8487 5.8165,-2.7527 2.9784,-1.9041 6.4755,-4.3796 10.4913,-7.4265 -4.0158,1.6616 -7.5308,3.2715 -10.543,4.8297 -3.0121,1.5583 -4.7612,2.8909 -5.245,3.999 -0.3458,0.6926 -0.5198,1.1428 -0.5198,1.3505 z"
     style="fill:#000000;fill-rule:evenodd"
     id="path40" />
  <path
     d="m 872.2438,595.9339 c 0.1381,0.2077 0.1381,0.4333 0,0.6747 -0.1381,0.2425 -0.311,0.3985 -0.5187,0.467 -1.8019,0.6242 -3.4118,1.0576 -4.8308,1.2989 -1.4202,0.2425 -2.6495,0.3638 -3.6868,0.3638 -1.3169,0 -2.3891,-0.1561 -3.2198,-0.467 -0.8319,-0.3121 -1.4898,-0.7107 -1.9748,-1.1957 -0.1392,-0.1381 -0.2077,-0.2065 -0.2077,-0.2065 -2.563,1.8703 -5.2103,3.2546 -7.9462,4.1538 -2.7359,0.9004 -4.8308,1.3506 -6.2847,1.3506 -0.6915,0 -1.1765,-0.155 -1.4538,-0.4671 -0.2773,-0.3109 -0.4502,-0.5366 -0.5198,-0.6747 -0.4154,-1.2473 0.9352,-3.0132 4.0517,-5.2978 3.3231,-2.4935 6.0758,-3.7744 8.2572,-3.844 2.1813,-0.0696 3.6183,0.3121 4.311,1.1428 0.3458,0.4154 0.5198,0.9004 0.5198,1.455 v 0.2077 c 0,0.0685 0.0516,0.2245 0.156,0.467 0.1033,0.2425 0.3638,0.5019 0.778,0.7792 0.5546,0.3457 1.6975,0.6062 3.4287,0.7791 1.7311,0.1729 4.3963,-0.3638 7.9978,-1.6099 0.6242,-0.1392 1.0048,0.0685 1.1429,0.6231 z m -15.8936,-0.4154 c 0,-0.0696 0.1213,-0.2245 0.3638,-0.467 0.2425,-0.2425 0.2604,-0.4682 0.0527,-0.6759 -0.4153,-0.485 -1.5066,-0.6062 -3.2725,-0.3637 -1.7648,0.2425 -4.0337,1.3685 -6.8034,3.3769 -1.2461,0.8993 -2.0769,1.6088 -2.4934,2.1286 -0.4154,0.5187 -0.6915,0.8824 -0.8296,1.0912 h 0.3109 c 1.2462,0 3.0806,-0.4333 5.5045,-1.2989 2.4249,-0.8656 4.8128,-2.1297 7.167,-3.7912 z"
     style="fill:#000000;fill-rule:evenodd"
     id="path42" />
  <path
     d="m 920.232,595.9339 c 0.2077,0.485 0.036,0.8655 -0.5187,1.1417 -2.2846,0.8319 -4.8645,1.6458 -7.7385,2.4418 -2.874,0.796 -5.6268,1.4539 -8.2583,1.9737 -2.6315,0.5186 -4.7444,0.7791 -6.3363,0.7791 h -0.1044 c -0.8308,0 -1.4191,-0.1561 -1.766,-0.4682 -0.3457,-0.3109 -0.5882,-0.6051 -0.7263,-0.8824 -0.1392,-0.485 -0.1213,-1.0048 0.0527,-1.5582 0.1718,-0.5535 0.4323,-1.1766 0.778,-1.8693 -2.9773,1.9389 -5.2978,3.2378 -6.9593,3.8945 -1.6627,0.6579 -2.8741,0.9869 -3.6363,0.9869 -0.5535,0 -0.9521,-0.0865 -1.1934,-0.2594 -0.2425,-0.1729 -0.4334,-0.3289 -0.5715,-0.467 -0.485,-0.6927 -0.5377,-1.5403 -0.156,-2.5451 0.3817,-1.0048 0.9868,-2.0264 1.8176,-3.0637 -1.5931,0.8308 -3.2894,1.6963 -5.0902,2.5967 -1.8007,0.8993 -3.4454,1.6963 -4.9341,2.3879 -1.4886,0.6938 -2.5787,1.1429 -3.2714,1.3506 -0.2773,0.0696 -0.5883,0.1381 -0.9341,0.2077 -0.3469,0.0696 -0.6938,0.1044 -1.0396,0.1044 -0.9688,0 -1.6278,-0.3121 -1.9736,-0.9352 -0.6927,-1.1081 0.3121,-3.1502 3.0132,-6.1286 0.3458,-0.4154 0.7612,-0.4491 1.2451,-0.1033 0.4849,0.3458 0.5197,0.796 0.1044,1.3506 -1.107,1.3157 -1.8345,2.2677 -2.1814,2.856 -0.3458,0.5883 -0.5186,0.952 -0.5186,1.0912 0.138,0 0.3457,-0.0179 0.623,-0.0527 0.2762,-0.0337 0.6927,-0.0865 1.2462,-0.155 0.6231,-0.1392 1.6963,-0.5725 3.2198,-1.3 1.5234,-0.7264 3.2377,-1.5919 5.1418,-2.5967 1.904,-1.0037 3.7216,-1.9725 5.4528,-2.9077 1.7311,-0.9352 3.1165,-1.6795 4.1561,-2.233 0.0684,-0.0696 0.1717,-0.1033 0.3109,-0.1033 0.4154,-0.1392 0.7264,-0.0348 0.9352,0.311 0.2762,0.4154 0.2425,0.8656 -0.1044,1.3506 -2.1454,1.8007 -3.652,3.3926 -4.5176,4.778 -0.8667,1.3843 -1.2304,2.251 -1.0912,2.5967 0,0 0.1897,0 0.5714,0 0.3806,0 1.1081,-0.1897 2.1813,-0.5714 1.0744,-0.3817 2.6664,-1.1777 4.7792,-2.389 2.1117,-1.2125 4.8634,-3.029 8.2572,-5.4528 0.0685,-0.1392 0.1381,-0.2257 0.2077,-0.2605 0.0696,-0.0348 0.1381,-0.0864 0.2077,-0.156 0.4154,-0.4154 0.796,-0.4154 1.1417,0 l 0.2089,0.2077 c 0,0 0,0 0,0 0,0 0.0336,0.0348 0.1032,0.1044 0.2773,0.4154 0.1729,0.7971 -0.3121,1.1429 -2.1454,2.0084 -3.634,3.6351 -4.4659,4.8813 -0.8308,1.2473 -1.1777,2.0084 -1.0385,2.2857 0,0 0.0517,0.0169 0.1561,0.0517 0.1033,0.0348 0.293,0.0516 0.5703,0.0516 1.4538,0 3.4634,-0.2425 6.0253,-0.7275 2.5619,-0.4838 5.2799,-1.1249 8.1539,-1.9208 2.874,-0.796 5.4191,-1.6099 7.6341,-2.4407 0.5546,-0.1392 0.9352,0.0685 1.1429,0.6231 z"
     style="fill:#000000;fill-rule:evenodd"
     id="path44" />
  <path
     d="m 156.4363,483.8932 h 1.5661 l -18.0603,59.0644 h -0.5523 L 119.8554,494.8571 100.32,542.9576 H 99.7665 L 81.7074,483.9853 h 6.91 l 14.6518,47.8232 15.7566,-38.8857 3.4095,-8.3852 h 0.3683 l 19.074,46.9936 z"
     style="fill:#000000;fill-rule:evenodd"
     id="path46" />
  <path
     d="m 213.5473,485.4593 h -22.7598 v 25.3396 h 20.2719 v 1.5662 h -20.2719 v 27.9195 h 22.7598 v 1.5672 h -29.3936 v -57.9586 h 0.2762 29.1174 z"
     style="fill:#000000;fill-rule:evenodd"
     id="path48" />
  <path
     d="m 264.2198,483.8932 c 2.0881,0 4.4378,0.183 7.0492,0.5524 2.6102,0.3682 5.2203,1.0755 7.8317,2.1195 2.6113,1.0441 4.9924,2.5799 7.1423,4.6063 2.1499,2.0276 3.8844,4.7298 5.2058,8.109 1.3203,3.3792 1.9804,7.587 1.9804,12.6244 0,5.2215 -0.7365,9.5976 -2.2105,13.1306 -1.4752,3.5319 -3.4096,6.3891 -5.8053,8.5693 -2.3958,2.1814 -4.9611,3.8553 -7.6947,5.0217 -2.7326,1.1676 -5.3754,1.9669 -7.9238,2.3958 -2.5507,0.4299 -4.7309,0.6758 -6.5429,0.7376 -1.812,0.0617 -2.9638,0.092 -3.4555,0.092 h -19.5344 v -57.9586 z m -4.5154,56.3914 c 3.1334,0 6.297,-0.4289 9.491,-1.2888 3.194,-0.8611 6.1118,-2.3341 8.7534,-4.4233 2.6416,-2.0882 4.7612,-4.9757 6.3588,-8.6614 1.5975,-3.6857 2.3957,-8.3537 2.3957,-14.0063 0,-4.4839 -0.5523,-8.292 -1.6593,-11.4254 -1.1058,-3.1333 -2.5944,-5.6829 -4.4682,-7.6487 -1.8737,-1.9658 -3.9472,-3.4713 -6.2195,-4.5153 -2.2734,-1.0441 -4.5917,-1.766 -6.9572,-2.1645 -2.3654,-0.3997 -4.5916,-0.5995 -6.6809,-0.5995 H 246.896 v 54.7332 z"
     style="fill:#000000;fill-rule:evenodd"
     id="path50" />
  <path
     d="m 344.4654,483.8932 c 2.0882,0 4.4379,0.183 7.0492,0.5524 2.6102,0.3682 5.2204,1.0755 7.8317,2.1195 2.6114,1.0441 4.9925,2.5799 7.1424,4.6063 2.1499,2.0276 3.8844,4.7298 5.2058,8.109 1.3203,3.3792 1.9804,7.587 1.9804,12.6244 0,5.2215 -0.7365,9.5976 -2.2105,13.1306 -1.4752,3.5319 -3.4096,6.3891 -5.8053,8.5693 -2.3958,2.1814 -4.9611,3.8553 -7.6948,5.0217 -2.7325,1.1676 -5.3753,1.9669 -7.9237,2.3958 -2.5507,0.4299 -4.7309,0.6758 -6.5429,0.7376 -1.812,0.0617 -2.9638,0.092 -3.4555,0.092 h -19.5344 v -57.9586 z m -4.5153,56.3914 c 3.1333,0 6.297,-0.4289 9.491,-1.2888 3.194,-0.8611 6.1118,-2.3341 8.7534,-4.4233 2.6416,-2.0882 4.7612,-4.9757 6.3587,-8.6614 1.5976,-3.6857 2.3958,-8.3537 2.3958,-14.0063 0,-4.4839 -0.5523,-8.292 -1.6593,-11.4254 -1.1058,-3.1333 -2.5945,-5.6829 -4.4682,-7.6487 -1.8737,-1.9658 -3.9473,-3.4713 -6.2195,-4.5153 -2.2734,-1.0441 -4.5917,-1.766 -6.9572,-2.1645 -2.3654,-0.3997 -4.5917,-0.5995 -6.6809,-0.5995 h -13.8223 v 54.7332 z"
     style="fill:#000000;fill-rule:evenodd"
     id="path52" />
  <path
     d="m 401.673,541.8518 v -57.9586 h 6.6349 v 57.9586 z"
     style="fill:#000000;fill-rule:evenodd"
     id="path54" />
  <path
     d="m 483.9563,483.8932 v 59.5247 h -0.2762 L 438.4368,493.291 v 48.5608 h -1.5661 v -59.0655 h 0.2762 l 45.2433,50.1269 v -49.02 z"
     style="fill:#000000;fill-rule:evenodd"
     id="path56" />
  <path
     d="m 546.2349,512.3651 h 14.8348 v 26.2613 c 0,0 -0.8128,0.3997 -2.4418,1.1979 -1.6278,0.7993 -3.8855,1.5975 -6.773,2.3969 -2.8875,0.7982 -6.2656,1.1967 -10.1354,1.1967 -2.334,0 -4.8678,-0.2604 -7.6015,-0.7825 -2.7337,-0.522 -5.4685,-1.4583 -8.2011,-2.81 -2.7337,-1.3517 -5.2372,-3.1794 -7.5095,-5.4842 -2.2734,-2.3026 -4.0999,-5.1901 -5.483,-8.6613 -1.382,-3.4702 -2.0736,-7.6622 -2.0736,-12.5772 0,-5.345 0.86,-9.9367 2.581,-13.7762 1.7188,-3.8396 4.0696,-6.9729 7.0481,-9.399 2.9795,-2.4261 6.3733,-4.2223 10.1825,-5.3899 3.8081,-1.1664 7.77,-1.7513 11.8868,-1.7513 3.5004,0 6.526,0.1841 9.0756,0.5534 2.5495,0.3683 4.4996,0.7365 5.8513,1.1059 1.3517,0.3682 2.0275,0.5534 2.0275,0.5534 v 1.9344 c 0,0 -0.6612,-0.2156 -1.9815,-0.6444 -1.3213,-0.43 -3.24,-0.8611 -5.7581,-1.29 -2.5193,-0.43 -5.5909,-0.6455 -9.2148,-0.6455 -1.9041,0 -3.9933,0.2313 -6.2656,0.6904 -2.2734,0.4614 -4.5008,1.3068 -6.681,2.535 -2.1802,1.2282 -4.1774,2.9178 -5.9894,5.0677 -1.8131,2.1499 -3.2714,4.8982 -4.3772,8.2471 -1.1059,3.3478 -1.6582,7.4174 -1.6582,12.209 0,7.1872 1.0901,12.8848 3.2714,17.0925 2.1802,4.2077 5.1452,7.2187 8.8915,9.0307 3.7463,1.812 8.0169,2.718 12.8085,2.718 2.334,0 4.5142,-0.2156 6.5417,-0.6456 2.0276,-0.4288 3.8081,-0.9205 5.3439,-1.4729 v -25.9852 h -8.1999 z"
     style="fill:#000000;fill-rule:evenodd"
     id="path58" />
  <path
     d="m 636.5194,540.2846 h 23.037 v 1.5672 h -29.6708 v -57.9586 h 6.6338 z"
     style="fill:#000000;fill-rule:evenodd"
     id="path60" />
  <path
     d="m 716.8639,482.7863 c 4.1157,0 8.0775,0.5849 11.8867,1.7513 3.8081,1.1676 7.203,2.9638 10.1815,5.3899 2.9795,2.4261 5.345,5.5594 7.0952,9.399 1.7502,3.8395 2.6259,8.4312 2.6259,13.7762 0,4.915 -0.7219,9.107 -2.1656,12.5772 -1.4426,3.4712 -3.3478,6.3587 -5.7132,8.6613 -2.3644,2.3048 -4.9442,4.1325 -7.7397,5.4842 -2.7954,1.3517 -5.6054,2.288 -8.4312,2.81 -2.8257,0.5221 -5.4056,0.7825 -7.7396,0.7825 -2.2734,0 -4.823,-0.2604 -7.6476,-0.7825 -2.8269,-0.522 -5.6526,-1.4583 -8.4783,-2.81 -2.8258,-1.3517 -5.4057,-3.1794 -7.7397,-5.4842 -2.3351,-2.3026 -4.2246,-5.1901 -5.6672,-8.6613 -1.4437,-3.4702 -2.1656,-7.6622 -2.1656,-12.5772 0,-5.345 0.86,-9.9367 2.581,-13.7762 1.7188,-3.8396 4.0697,-6.9729 7.0481,-9.399 2.9795,-2.4261 6.3733,-4.2223 10.1825,-5.3899 3.8081,-1.1664 7.77,-1.7513 11.8868,-1.7513 z m 0,59.1576 c 2.5799,0 5.3293,-0.384 8.2471,-1.1519 2.9178,-0.7679 5.6357,-2.1656 8.1539,-4.1931 2.5192,-2.0264 4.5771,-4.9442 6.1746,-8.7534 1.5976,-3.8081 2.3958,-8.7231 2.3958,-14.7428 0,-4.7916 -0.5681,-8.8612 -1.7042,-12.209 -1.1373,-3.3489 -2.6271,-6.0972 -4.4705,-8.2471 -1.8423,-2.1499 -3.8855,-3.8395 -6.1275,-5.0677 -2.2419,-1.2282 -4.4693,-2.0736 -6.6798,-2.535 -2.2117,-0.4591 -4.2077,-0.6904 -5.9894,-0.6904 -1.7817,0 -3.7789,0.2313 -5.9894,0.6904 -2.2117,0.4614 -4.4244,1.3068 -6.635,2.535 -2.2116,1.2282 -4.2537,2.9178 -6.1274,5.0677 -1.8738,2.1499 -3.3781,4.8982 -4.5143,8.2471 -1.1372,3.3478 -1.7053,7.4174 -1.7053,12.209 0,6.0197 0.7982,10.9347 2.3958,14.7428 1.5975,3.8092 3.6699,6.727 6.2195,8.7534 2.5496,2.0275 5.2675,3.4252 8.155,4.1931 2.8875,0.7679 5.6201,1.1519 8.2011,1.1519 z"
     style="fill:#000000;fill-rule:evenodd"
     id="path62" />
  <path
     d="m 806.5972,482.7863 c 4.1157,0 8.0776,0.5849 11.8867,1.7513 3.8081,1.1676 7.2031,2.9638 10.1815,5.3899 2.9795,2.4261 5.345,5.5594 7.0952,9.399 1.7502,3.8395 2.6259,8.4312 2.6259,13.7762 0,4.915 -0.7219,9.107 -2.1656,12.5772 -1.4426,3.4712 -3.3478,6.3587 -5.7132,8.6613 -2.3644,2.3048 -4.9442,4.1325 -7.7397,5.4842 -2.7954,1.3517 -5.6054,2.288 -8.4312,2.81 -2.8257,0.5221 -5.4056,0.7825 -7.7396,0.7825 -2.2734,0 -4.823,-0.2604 -7.6476,-0.7825 -2.8268,-0.522 -5.6526,-1.4583 -8.4783,-2.81 -2.8258,-1.3517 -5.4057,-3.1794 -7.7397,-5.4842 -2.3351,-2.3026 -4.2245,-5.1901 -5.6672,-8.6613 -1.4437,-3.4702 -2.1656,-7.6622 -2.1656,-12.5772 0,-5.345 0.86,-9.9367 2.581,-13.7762 1.7188,-3.8396 4.0697,-6.9729 7.0481,-9.399 2.9795,-2.4261 6.3733,-4.2223 10.1825,-5.3899 3.8081,-1.1664 7.77,-1.7513 11.8868,-1.7513 z m 0,59.1576 c 2.5799,0 5.3293,-0.384 8.2471,-1.1519 2.9178,-0.7679 5.6357,-2.1656 8.1539,-4.1931 2.5192,-2.0264 4.5771,-4.9442 6.1746,-8.7534 1.5976,-3.8081 2.3958,-8.7231 2.3958,-14.7428 0,-4.7916 -0.5681,-8.8612 -1.7042,-12.209 -1.1373,-3.3489 -2.6271,-6.0972 -4.4705,-8.2471 -1.8423,-2.1499 -3.8855,-3.8395 -6.1275,-5.0677 -2.2419,-1.2282 -4.4693,-2.0736 -6.6798,-2.535 -2.2116,-0.4591 -4.2077,-0.6904 -5.9894,-0.6904 -1.7817,0 -3.7789,0.2313 -5.9894,0.6904 -2.2117,0.4614 -4.4244,1.3068 -6.6349,2.535 -2.2117,1.2282 -4.2538,2.9178 -6.1275,5.0677 -1.8738,2.1499 -3.3781,4.8982 -4.5143,8.2471 -1.1372,3.3478 -1.7053,7.4174 -1.7053,12.209 0,6.0197 0.7982,10.9347 2.3958,14.7428 1.5975,3.8092 3.67,6.727 6.2195,8.7534 2.5496,2.0275 5.2676,3.4252 8.155,4.1931 2.8875,0.7679 5.6201,1.1519 8.2011,1.1519 z"
     style="fill:#000000;fill-rule:evenodd"
     id="path64" />
  <path
     d="m 865.3697,541.8518 v -57.9586 h 6.6338 v 57.9586 z m 13.8211,-33.5407 28.565,33.5407 h -8.6613 l -25.5249,-29.947 27.2751,-28.0116 h 2.1196 z"
     style="fill:#000000;fill-rule:evenodd"
     id="path66" />
  <path
     d="m 151.9715,756.5432 h 0.7297 l -8.4121,27.512 h -0.2582 l -9.0992,-22.405 -9.0992,22.405 h -0.2571 l -8.4121,-27.4693 h 3.2187 l 6.8246,22.2758 7.3389,-18.1119 1.5886,-3.9057 h 0.1717 l 8.8836,21.8885 z"
     style="fill:#000000;fill-rule:evenodd"
     id="path68" />
  <path
     d="m 178.5729,757.2729 h -10.6013 v 11.8026 h 9.4428 v 0.7297 h -9.4428 v 13.005 h 10.6013 v 0.7297 H 164.881 v -26.9967 h 0.1291 13.5628 z"
     style="fill:#000000;fill-rule:evenodd"
     id="path70" />
  <path
     d="m 202.1758,756.5432 c 0.9734,0 2.0668,0.0853 3.2838,0.2571 1.2158,0.1718 2.4317,0.5018 3.6475,0.9879 1.217,0.4861 2.3251,1.2013 3.3276,2.1454 1.0014,0.9442 1.8086,2.2038 2.4249,3.7767 0.6141,1.574 0.9218,3.5341 0.9218,5.8805 0,2.4328 -0.3436,4.4704 -1.0295,6.1163 -0.6871,1.6458 -1.5886,2.9761 -2.7045,3.9922 -1.1159,1.0148 -2.3105,1.7951 -3.5836,2.3385 -1.2731,0.5433 -2.5035,0.9161 -3.6913,1.1159 -1.1878,0.1998 -2.2038,0.3143 -3.0469,0.3435 -0.8442,0.0292 -1.3809,0.0427 -1.6099,0.0427 h -9.0992 v -26.9967 z m -2.1027,26.267 c 1.4594,0 2.9324,-0.1999 4.421,-0.6007 1.4875,-0.4008 2.8471,-1.0867 4.0775,-2.0601 1.2305,-0.9733 2.2173,-2.3183 2.9605,-4.0348 0.7443,-1.7166 1.1159,-3.8912 1.1159,-6.5238 0,-2.0882 -0.2571,-3.862 -0.7724,-5.3214 -0.5153,-1.4595 -1.208,-2.6473 -2.0814,-3.5634 -0.8723,-0.9149 -1.8389,-1.6166 -2.8965,-2.1027 -1.0586,-0.4861 -2.1386,-0.8229 -3.2411,-1.0082 -1.1013,-0.1863 -2.1387,-0.2795 -3.112,-0.2795 h -6.4374 v 25.4946 z"
     style="fill:#000000;fill-rule:evenodd"
     id="path72" />
  <path
     d="m 239.5526,756.5432 c 0.9734,0 2.0668,0.0853 3.2838,0.2571 1.2158,0.1718 2.4317,0.5018 3.6475,0.9879 1.217,0.4861 2.3251,1.2013 3.3276,2.1454 1.0014,0.9442 1.8086,2.2038 2.425,3.7767 0.6141,1.574 0.9217,3.5341 0.9217,5.8805 0,2.4328 -0.3436,4.4704 -1.0295,6.1163 -0.6871,1.6458 -1.5886,2.9761 -2.7045,3.9922 -1.1159,1.0148 -2.3105,1.7951 -3.5836,2.3385 -1.2731,0.5433 -2.5035,0.9161 -3.6913,1.1159 -1.1877,0.1998 -2.2038,0.3143 -3.0469,0.3435 -0.8442,0.0292 -1.3808,0.0427 -1.6099,0.0427 h -9.0992 v -26.9967 z m -2.1027,26.267 c 1.4594,0 2.9324,-0.1999 4.421,-0.6007 1.4875,-0.4008 2.8471,-1.0867 4.0775,-2.0601 1.2305,-0.9733 2.2173,-2.3183 2.9605,-4.0348 0.7443,-1.7166 1.1159,-3.8912 1.1159,-6.5238 0,-2.0882 -0.2571,-3.862 -0.7724,-5.3214 -0.5153,-1.4595 -1.208,-2.6473 -2.0814,-3.5634 -0.8723,-0.9149 -1.8389,-1.6166 -2.8965,-2.1027 -1.0586,-0.4861 -2.1386,-0.8229 -3.2411,-1.0082 -1.1013,-0.1863 -2.1387,-0.2795 -3.112,-0.2795 h -6.4374 v 25.4946 z"
     style="fill:#000000;fill-rule:evenodd"
     id="path74" />
  <path
     d="m 266.2001,783.5399 v -26.9967 h 3.0907 v 26.9967 z"
     style="fill:#000000;fill-rule:evenodd"
     id="path76" />
  <path
     d="m 304.5267,756.5432 v 27.7264 h -0.1291 l -21.0735,-23.348 v 22.6183 h -0.7297 v -27.512 h 0.1291 l 21.0735,23.3491 v -22.8338 z"
     style="fill:#000000;fill-rule:evenodd"
     id="path78" />
  <path
     d="m 333.5363,769.8052 h 6.91 v 12.2326 c 0,0 -0.3783,0.1863 -1.1372,0.5579 -0.7578,0.3716 -1.8098,0.7443 -3.1547,1.1159 -1.345,0.3728 -2.919,0.558 -4.7219,0.558 -1.0868,0 -2.2667,-0.1212 -3.5398,-0.3649 -1.2742,-0.2424 -2.5473,-0.6792 -3.8204,-1.309 -1.2731,-0.6298 -2.4396,-1.4808 -3.4982,-2.554 -1.0587,-1.0722 -1.9097,-2.4171 -2.553,-4.0338 -0.6444,-1.6166 -0.9666,-3.57 -0.9666,-5.8591 0,-2.489 0.4008,-4.6277 1.2024,-6.4172 0.8004,-1.7873 1.895,-3.2467 3.2826,-4.3773 1.3877,-1.1305 2.9695,-1.9669 4.7433,-2.5102 1.7738,-0.5445 3.6195,-0.8162 5.537,-0.8162 1.6301,0 3.0401,0.0853 4.2268,0.2571 1.1878,0.1718 2.096,0.3435 2.7258,0.5153 0.6298,0.1718 0.9442,0.2582 0.9442,0.2582 v 0.9015 c 0,0 -0.3076,-0.101 -0.9228,-0.3009 -0.6153,-0.1998 -1.5089,-0.4008 -2.6821,-0.6006 -1.1732,-0.1998 -2.6034,-0.3009 -4.2919,-0.3009 -0.8869,0 -1.8603,0.1078 -2.919,0.3222 -1.0586,0.2145 -2.096,0.6085 -3.112,1.18 -1.0149,0.5725 -1.9455,1.3595 -2.7898,2.3609 -0.8442,1.0014 -1.5234,2.2813 -2.0387,3.8418 -0.5153,1.5593 -0.7724,3.4544 -0.7724,5.6863 0,3.3477 0.5085,6.0017 1.5234,7.9619 1.016,1.9602 2.3969,3.3624 4.1426,4.2066 1.7447,0.8431 3.734,1.2652 5.9659,1.2652 1.0867,0 2.1027,-0.0999 3.0469,-0.2997 0.9441,-0.201 1.7738,-0.43 2.4889,-0.6871 v -12.1034 h -3.8193 z"
     style="fill:#000000;fill-rule:evenodd"
     id="path80" />
  <path
     d="m 355.0331,784.1843 -1.9737,-1.9748 1.9737,-1.9736 1.9736,1.9736 z"
     style="fill:#000000;fill-rule:evenodd"
     id="path82" />
  <path
     d="m 372.6297,782.8102 h 10.7304 v 0.7297 H 369.539 v -26.9967 h 3.0907 z"
     style="fill:#000000;fill-rule:evenodd"
     id="path84" />
  <path
     d="m 410.0525,756.0279 c 1.9164,0 3.7621,0.2717 5.537,0.8162 1.7738,0.5433 3.3545,1.3797 4.7421,2.5102 1.3876,1.1306 2.489,2.59 3.3051,4.3773 0.8151,1.7895 1.2226,3.9282 1.2226,6.4172 0,2.2891 -0.3357,4.2425 -1.0081,5.8591 -0.6725,1.6167 -1.5594,2.9616 -2.6619,4.0338 -1.1013,1.0732 -2.3025,1.9242 -3.6048,2.554 -1.3023,0.6298 -2.6113,1.0666 -3.9271,1.309 -1.3169,0.2437 -2.5181,0.3649 -3.6049,0.3649 -1.0586,0 -2.2464,-0.1212 -3.5622,-0.3649 -1.3169,-0.2424 -2.6326,-0.6792 -3.9495,-1.309 -1.3158,-0.6298 -2.5181,-1.4808 -3.6049,-2.554 -1.0878,-1.0722 -1.968,-2.4171 -2.6394,-4.0338 -0.6724,-1.6166 -1.0092,-3.57 -1.0092,-5.8591 0,-2.489 0.4008,-4.6277 1.2023,-6.4172 0.8005,-1.7873 1.8951,-3.2467 3.2827,-4.3773 1.3876,-1.1305 2.9694,-1.9669 4.7433,-2.5102 1.7738,-0.5445 3.6194,-0.8162 5.5369,-0.8162 z m 0,27.5546 c 1.2013,0 2.4822,-0.1785 3.8407,-0.5366 1.3595,-0.357 2.6259,-1.0081 3.799,-1.9523 1.1732,-0.9442 2.1309,-2.3037 2.8752,-4.0775 0.7443,-1.7738 1.1159,-4.0629 1.1159,-6.8673 0,-2.2319 -0.2638,-4.127 -0.7937,-5.6863 -0.5288,-1.5605 -1.2226,-2.8404 -2.0814,-3.8418 -0.8589,-1.0014 -1.8098,-1.7884 -2.855,-2.3609 -1.044,-0.5715 -2.0814,-0.9655 -3.1109,-1.18 -1.0306,-0.2144 -1.9601,-0.3222 -2.7898,-0.3222 -0.8296,0 -1.7603,0.1078 -2.7898,0.3222 -1.0306,0.2145 -2.0612,0.6085 -3.0907,1.18 -1.0295,0.5725 -1.9815,1.3595 -2.8538,2.3609 -0.8734,1.0014 -1.574,2.2813 -2.1027,3.8418 -0.5299,1.5593 -0.7949,3.4544 -0.7949,5.6863 0,2.8044 0.3716,5.0935 1.1159,6.8673 0.7444,1.7738 1.7099,3.1333 2.8976,4.0775 1.1867,0.9442 2.4531,1.5953 3.798,1.9523 1.345,0.3581 2.6181,0.5366 3.8204,0.5366 z"
     style="fill:#000000;fill-rule:evenodd"
     id="path86" />
  <path
     d="m 451.8504,756.0279 c 1.9164,0 3.762,0.2717 5.5369,0.8162 1.7739,0.5433 3.3546,1.3797 4.7422,2.5102 1.3876,1.1306 2.4889,2.59 3.3051,4.3773 0.815,1.7895 1.2226,3.9282 1.2226,6.4172 0,2.2891 -0.3357,4.2425 -1.0082,5.8591 -0.6725,1.6167 -1.5594,2.9616 -2.6618,4.0338 -1.1013,1.0732 -2.3026,1.9242 -3.6049,2.554 -1.3023,0.6298 -2.6113,1.0666 -3.9271,1.309 -1.3168,0.2437 -2.5181,0.3649 -3.6048,0.3649 -1.0587,0 -2.2465,-0.1212 -3.5622,-0.3649 -1.3169,-0.2424 -2.6327,-0.6792 -3.9496,-1.309 -1.3157,-0.6298 -2.5181,-1.4808 -3.6048,-2.554 -1.0879,-1.0722 -1.9681,-2.4171 -2.6394,-4.0338 -0.6725,-1.6166 -1.0093,-3.57 -1.0093,-5.8591 0,-2.489 0.4008,-4.6277 1.2024,-6.4172 0.8004,-1.7873 1.895,-3.2467 3.2827,-4.3773 1.3876,-1.1305 2.9694,-1.9669 4.7432,-2.5102 1.7738,-0.5445 3.6195,-0.8162 5.537,-0.8162 z m 0,27.5546 c 1.2012,0 2.4822,-0.1785 3.8406,-0.5366 1.3596,-0.357 2.6259,-1.0081 3.7991,-1.9523 1.1732,-0.9442 2.1308,-2.3037 2.8751,-4.0775 0.7444,-1.7738 1.116,-4.0629 1.116,-6.8673 0,-2.2319 -0.2639,-4.127 -0.7938,-5.6863 -0.5287,-1.5605 -1.2225,-2.8404 -2.0814,-3.8418 -0.8588,-1.0014 -1.8097,-1.7884 -2.8549,-2.3609 -1.0441,-0.5715 -2.0814,-0.9655 -3.1109,-1.18 -1.0306,-0.2144 -1.9602,-0.3222 -2.7898,-0.3222 -0.8297,0 -1.7604,0.1078 -2.7898,0.3222 -1.0306,0.2145 -2.0612,0.6085 -3.0907,1.18 -1.0295,0.5725 -1.9815,1.3595 -2.8538,2.3609 -0.8735,1.0014 -1.574,2.2813 -2.1028,3.8418 -0.5299,1.5593 -0.7948,3.4544 -0.7948,5.6863 0,2.8044 0.3716,5.0935 1.1159,6.8673 0.7443,1.7738 1.7098,3.1333 2.8976,4.0775 1.1866,0.9442 2.453,1.5953 3.798,1.9523 1.3449,0.3581 2.618,0.5366 3.8204,0.5366 z"
     style="fill:#000000;fill-rule:evenodd"
     id="path88" />
  <path
     d="m 479.2254,783.5399 v -26.9967 h 3.0907 v 26.9967 z m 6.4385,-15.623 13.3046,15.623 h -4.0337 l -11.8901,-13.9491 12.7052,-13.0476 h 0.9868 z"
     style="fill:#000000;fill-rule:evenodd"
     id="path90" />
  <path
     d="m 518.4501,775.4713 c -1.5448,0.8296 -2.7258,1.6234 -3.5409,2.3812 -0.8162,0.7589 -1.3741,1.5391 -1.6739,2.3396 -0.3008,0.8016 -0.4513,1.6739 -0.4513,2.6181 h 14.5071 v 0.7297 h -16.6525 v -0.7297 c 0,-1.4595 0.1998,-2.7753 0.6006,-3.9485 0.4008,-1.1731 1.144,-2.2823 2.2319,-3.3264 1.0878,-1.0441 2.6607,-2.1095 4.7208,-3.1974 1.1732,-0.6298 2.2184,-1.2809 3.1333,-1.9534 0.9161,-0.6713 1.6313,-1.5448 2.1466,-2.618 0.5153,-1.0722 0.7724,-2.5103 0.7724,-4.3133 0,-1.373 -0.2796,-2.5608 -0.8364,-3.5622 -0.5591,-1.0014 -1.3023,-1.7738 -2.233,-2.3183 -0.9296,-0.5434 -1.9523,-0.8151 -3.0682,-0.8151 -1.4022,0 -2.6259,0.1583 -3.67,0.4727 -1.0441,0.3143 -2.0814,0.8723 -3.112,1.6739 v -0.7298 c 0,0 0.2795,-0.1785 0.8375,-0.5366 0.5579,-0.3581 1.3662,-0.7151 2.4249,-1.0733 1.0587,-0.3581 2.3464,-0.5366 3.8631,-0.5366 1.5156,0 2.947,0.293 4.2919,0.8802 1.345,0.586 2.4385,1.5021 3.2838,2.7471 0.8431,1.2439 1.2653,2.8538 1.2653,4.8286 0,1.5167 -0.2571,2.8392 -0.7724,3.9697 -0.5153,1.1306 -1.2013,2.1174 -2.0601,2.9616 -0.8577,0.8443 -1.8097,1.5875 -2.8538,2.2319 -1.0441,0.6433 -2.096,1.2517 -3.1547,1.8243 z"
     style="fill:#000000;fill-rule:evenodd"
     id="path92" />
  <path
     d="m 546.9882,775.4713 c -1.5448,0.8296 -2.7258,1.6234 -3.5409,2.3812 -0.8162,0.7589 -1.3741,1.5391 -1.6739,2.3396 -0.3009,0.8016 -0.4513,1.6739 -0.4513,2.6181 h 14.5071 v 0.7297 h -16.6525 v -0.7297 c 0,-1.4595 0.1998,-2.7753 0.6006,-3.9485 0.4008,-1.1731 1.144,-2.2823 2.2319,-3.3264 1.0878,-1.0441 2.6607,-2.1095 4.7208,-3.1974 1.1732,-0.6298 2.2184,-1.2809 3.1333,-1.9534 0.9161,-0.6713 1.6313,-1.5448 2.1466,-2.618 0.5153,-1.0722 0.7723,-2.5103 0.7723,-4.3133 0,-1.373 -0.2795,-2.5608 -0.8363,-3.5622 -0.5591,-1.0014 -1.3023,-1.7738 -2.233,-2.3183 -0.9296,-0.5434 -1.9523,-0.8151 -3.0683,-0.8151 -1.4022,0 -2.6259,0.1583 -3.6699,0.4727 -1.0441,0.3143 -2.0815,0.8723 -3.1121,1.6739 v -0.7298 c 0,0 0.2796,-0.1785 0.8375,-0.5366 0.558,-0.3581 1.3663,-0.7151 2.425,-1.0733 1.0587,-0.3581 2.3464,-0.5366 3.8631,-0.5366 1.5156,0 2.947,0.293 4.2919,0.8802 1.345,0.586 2.4384,1.5021 3.2838,2.7471 0.8431,1.2439 1.2653,2.8538 1.2653,4.8286 0,1.5167 -0.2571,2.8392 -0.7724,3.9697 -0.5153,1.1306 -1.2013,2.1174 -2.0601,2.9616 -0.8577,0.8443 -1.8098,1.5875 -2.8538,2.2319 -1.0441,0.6433 -2.096,1.2517 -3.1547,1.8243 z"
     style="fill:#000000;fill-rule:evenodd"
     id="path94" />
</svg>
