<svg width="48" height="48" viewBox="0 0 48 48" fill="none" xmlns="http://www.w3.org/2000/svg">
<g clip-path="url(#clip0_1_42)">
<mask id="mask0_1_42" style="mask-type:alpha" maskUnits="userSpaceOnUse" x="3" y="6" width="43" height="44">
<path d="M19.2254 10.3699C16.0424 10.3699 11.1624 12.2069 12.8594 23.5829C12.8854 23.7549 12.9194 23.9409 12.9544 24.1399C13.2644 25.8509 13.7424 28.4999 10.7004 30.6839C12.7694 32.3819 15.7164 34.0789 19.2974 34.8139C19.1559 35.626 18.9784 36.4315 18.7654 37.2279C18.4744 38.2959 17.8644 39.0529 16.7744 39.3759C15.8144 39.6599 14.8084 39.8899 13.7784 40.1259C13.5134 40.1859 13.2464 40.2469 12.9784 40.3099C11.6934 40.6089 10.3834 40.9399 9.22239 41.4079C8.05839 41.8779 6.97639 42.5109 6.19439 43.4549C5.39839 44.4179 4.97239 45.6319 5.00139 47.1499C5.01139 47.6219 5.41539 47.9999 5.91139 47.9999H42.0894C42.5854 47.9999 42.9894 47.6219 42.9994 47.1499C43.0284 45.6319 42.6034 44.4179 41.8064 43.4549C41.0254 42.5109 39.9424 41.8769 38.7794 41.4079C37.6174 40.9389 36.3074 40.6079 35.0214 40.3089L34.2234 40.1259C33.1924 39.8899 32.1864 39.6599 31.2264 39.3759C30.1364 39.0529 29.5264 38.2959 29.2354 37.2279C28.9808 36.2797 28.7784 35.3182 28.6294 34.3479C31.3674 33.5239 34.2774 32.0429 37.3004 29.6779L37.2864 29.6639C35.8674 28.3059 33.2074 25.7599 33.0184 19.7159C33.0184 11.3939 27.7124 4.07886 19.2254 10.3689V10.3699Z" fill="#555555" stroke="white" stroke-width="4" stroke-linejoin="round"/>
</mask>
<g mask="url(#mask0_1_42)">
<path d="M0.000396729 3.99986H48.0004V51.9999H0.000396729V3.99986Z" fill="#D7C87D"/>
</g>
</g>
<defs>
<clipPath id="clip0_1_42">
<rect width="48" height="48" fill="white"/>
</clipPath>
</defs>
</svg>
