<svg width="148" height="141" viewBox="0 0 148 141" fill="none" xmlns="http://www.w3.org/2000/svg">
<path d="M74 26C84.7738 26 93.5 34.7511 93.5 45.5556C93.5 56.36 84.7738 65.1111 74 65.1111C63.2262 65.1111 54.5 56.36 54.5 45.5556C54.5 34.7511 63.2262 26 74 26ZM93.5 77.5289C93.5 82.7111 92.135 94.7867 82.8238 108.28L78.875 84.6667L83.4575 75.4756C80.435 75.1333 77.2663 74.8889 74 74.8889C70.7337 74.8889 67.565 75.1333 64.5425 75.4756L69.125 84.6667L65.1762 108.28C55.865 94.7867 54.5 82.7111 54.5 77.5289C42.8487 80.9511 35 87.1111 35 94.4444V114H113V94.4444C113 87.1111 105.2 80.9511 93.5 77.5289Z" fill="#D7C87D"/>
</svg>
